<?xml version="1.0" encoding="utf-8"?>
<!-- Generator: Adobe Illustrator 26.2.1, SVG Export Plug-In . SVG Version: 6.00 Build 0)  -->
<svg version="1.1" id="Layer_1" xmlns="http://www.w3.org/2000/svg" xmlns:xlink="http://www.w3.org/1999/xlink" x="0px" y="0px"
	 viewBox="0 0 383.7 383" style="enable-background:new 0 0 383.7 383;" xml:space="preserve">
<g>
	<path d="M-2.2,333.2c4-20.4,16.4-37,25.6-54.9c16.1-31.2,32.9-61.9,49.3-92.9c1-1.9,1.6-4.3,1.6-6.4c0.1-20.5,0.1-40.9,0.1-61.6
		c-0.8-0.2-1.5-0.4-2.2-0.6c-8.1-2.2-12.9-8.7-12-16.4c1-8.6,6.6-13.8,15.5-13.9c11.2-0.2,22.5,0,33.7,0c1.4,0,2.7,0,4.3,0
		c0-13.6,0-26.8,0-40.5c-4.7,0-9.5,0.5-14.1-0.1C80.3,43.3,64.3,28.4,60.5,9.3c-0.8-3.8,0.3-5.6,4-6.9c18.8-6.6,41,0.8,52.7,17.5
		c0.7,1,1.4,2.1,2.2,3.2c2.2-2.8,4-5.6,6.4-8c13.5-13.7,29.6-18,48.2-12.8c4.4,1.3,5.4,3.1,4.4,7.6C173.7,32.7,150.8,49,127.7,46
		c-0.7-0.1-1.5-0.1-2.6-0.1c0,13.4,0,26.7,0,40.5c1.5,0,3,0,4.5,0c11.2,0,22.5-0.1,33.7,0.1c7.9,0.1,13.4,4.6,14.9,11.5
		c1.5,7.4-1.5,14.5-7.5,17.4c-1.9,0.9-4,1.4-6.1,2.1c0,3.5,0,6.8,0,10.6c1.2,0.1,2.3,0.3,3.4,0.3c14,0,28.1,0,42.1,0.1
		c2.4,0,3.6-0.8,4.6-2.9c3.9-7.6,7.9-15.2,12-22.8c1.2-2.1,1.2-3.8-0.1-5.9c-3.2-5.3-6.2-10.7-9.3-16.1c-2.4-4.2-2.1-7,1.1-8.8
		c3.2-1.7,5.5-0.7,8.1,3.7c3,5.1,6,10.2,8.9,15.4c1.2,2.2,2.6,3.3,5.3,3.2c9.2-0.2,18.5-0.1,27.7,0c2.1,0,3.4-0.5,4.5-2.5
		c4.9-9.2,10.1-18.4,15-27.6c0.7-1.4,1.1-3.1,1.1-4.6c0.1-7.2,0-14.4,0.1-21.6c0-4,1.8-6,5.2-6c3.4,0,5.3,2,5.4,5.9
		c0.1,6.7,0,13.4,0,20.3c9.9,0,19.6,0,29.7,0c0-6.7,0-13.2,0-19.8c0-4.4,1.6-6.4,5.1-6.4c3.6-0.1,5.4,2,5.4,6.6
		c0,7.1-0.1,14.2,0.1,21.2c0,1.6,0.4,3.3,1.2,4.6c4.8,8.6,9.7,17.1,14.8,25.5c0.8,1.3,2.8,2.5,4.3,2.5c6.3,0.3,12.6,0.1,19,0.1
		c4.6,0,6.9,1.9,6.8,5.3c-0.1,3.3-2.3,5-6.6,5c-6.3,0-12.6,0.1-19,0c-2.1,0-3.4,0.6-4.5,2.5c-4.6,8.6-9.3,17.1-14.1,25.5
		c-1,1.7-1.1,3,0,4.8c4.8,7.9,9.4,15.9,13.9,23.9c1.1,1.9,2.3,2.6,4.5,2.6c6.6-0.1,13.1-0.1,19.7,0c4.8,0.1,7.6,4.1,5.2,7.8
		c-1,1.5-3.4,2.6-5.2,2.7c-6.4,0.3-12.9,0.2-19.3,0.1c-2.3,0-3.7,0.5-4.8,2.7c-4.6,8.6-9.3,17.1-14.1,25.5c-1.1,1.8-0.8,3.1,0.2,4.8
		c3.2,5.3,6.3,10.7,9.4,16c2.6,4.5,2.3,7.3-0.9,9.1c-3.2,1.8-5.5,0.7-8.1-3.7c-3.1-5.3-6.2-10.7-9.2-16.1c-1-1.9-2.3-2.6-4.5-2.6
		c-9.4,0.1-18.7,0.1-28.1,0c-2.2,0-3.4,0.6-4.4,2.6c-4.4,8.5-9,16.9-13.4,25.5c-0.7,1.4-1.1,3.1-1.1,4.6c-0.1,7.2,0,14.4-0.1,21.6
		c0,4.2-1.6,6-5,6.1c-3.4,0-5.2-1.9-5.3-5.9c-0.1-6.7,0-13.4,0-20.3c-10,0-19.6,0-29.9,0c0,6.9,0,13.8,0,20.7c0,4-2.3,6-5.9,5.6
		c-3.5-0.5-4.5-2.9-4.5-6c0-7.1,0.1-14.2-0.1-21.2c-0.1-2.1-0.5-4.3-1.4-6.1c-4.2-8.6-8.6-17.1-12.8-25.8c-1.1-2.2-2.2-3.2-4.8-3.1
		c-11.2,0.2-22.5,0.1-34.3,0.1c0.8,1.6,1.4,2.8,2,4c18.4,34.6,36.9,69.3,55.3,103.9c7,13.2,8.5,26.8,3.1,40.9
		c-6.6,17.2-21.7,27.5-41.8,27.5c-51.1,0.2-102.1,0.2-153.2,0c-24.2-0.1-40-13.9-44.5-37.7c-0.1-0.5-0.4-0.9-0.6-1.4
		C-2.2,340.3-2.2,336.7-2.2,333.2z M119.7,372.2c4.3,0,8.6,0,12.9,0c22.6-0.1,45.2,0.1,67.9-0.3c9.1-0.2,16.9-4.3,22.6-11.5
		c9.6-12.3,10-25.8,3.3-39.5c-5.5-11.1-11.5-21.9-17.5-32.7c-0.8-1.5-2.5-2.8-4.1-3.6c-19.4-9.3-39.9-10.9-60.6-6.3
		c-16.3,3.6-32.4,8.6-48.6,12.9c-21.9,5.8-44,9.2-66.5,3.6c-1-0.2-2.9,0.8-3.4,1.8c-4.6,8.3-9.2,16.6-13.3,25.1
		c-4.5,9.3-5.4,19.1-1.9,29c4.9,13.8,16.5,21.5,33.1,21.6C68.9,372.3,94.3,372.2,119.7,372.2z M199.4,270.5
		c-0.5-1.1-1.1-2.2-1.6-3.3c-13.6-25.5-27.1-51-40.8-76.5c-2.1-3.9-3-7.8-3-12.2c0.2-19.1,0.1-38.2,0.1-57.2c0-1.3,0-2.7,0-4
		c-23.3,0-46.1,0-69.1,0c0,1.7,0,3,0,4.4c0,19.7,0.1,39.4-0.1,59.1c0,2.5-0.7,5.3-1.9,7.5c-16.3,30.8-32.7,61.5-49.1,92.2
		c-0.6,1.2-1.2,2.4-2,3.9c16.2,4,32.3,3.7,48.1-0.2c17.5-4.3,34.7-9.5,52.1-14.1c15.7-4.2,31.7-6.1,48-3.6
		C186.6,267.5,192.9,269.2,199.4,270.5z M164.5,138.7c0,1.6,0,3,0,4.4c0,9.2,0.4,18.5-0.1,27.6c-0.5,8.4,1.3,15.9,6,22.8
		c1.2,1.7,2.2,2.7,4.4,2.7c12.5-0.1,25-0.1,37.5,0c2.2,0,3.3-0.8,4.3-2.7c4-7.9,8.2-15.6,12.2-23.5c0.6-1.3,0.5-3.4-0.1-4.7
		c-4.3-8-9-15.8-13.3-23.7c-1.3-2.3-2.7-3.1-5.3-3.1c-13.8,0.1-27.5,0.1-41.3,0.1C167.3,138.5,166.1,138.6,164.5,138.7z
		 M314.1,128.2c4.8,0,9.6,0.2,14.4-0.1c1.4-0.1,3.4-1.1,4.1-2.3c4.9-8.5,9.6-17.2,14.1-25.9c0.6-1.2,0.5-3.2-0.1-4.3
		c-4.4-8.1-9-16.1-13.8-23.9c-0.7-1.2-2.6-2.4-4-2.5c-9.7-0.2-19.5-0.2-29.2,0c-1.3,0-3.1,1.1-3.7,2.2c-4.9,8.6-9.6,17.2-14.1,25.9
		c-0.6,1.1-0.6,3,0,4c4.6,8.3,9.3,16.5,14.2,24.6c0.7,1.2,2.7,2.1,4.1,2.2C304.8,128.4,309.4,128.2,314.1,128.2z M314.1,198.1
		c4.7,0,9.3-0.1,14,0.1c2.3,0.1,3.7-0.6,4.8-2.7c4.5-8.6,9.2-17.1,13.7-25.7c0.6-1.3,0.7-3.4,0-4.7c-4.5-8.2-9.1-16.3-13.9-24.3
		c-0.7-1.2-2.7-2.2-4.1-2.3c-9.5-0.2-18.9-0.2-28.4,0c-1.4,0-3.3,1.2-4,2.4c-4.4,7.9-8.6,16-12.7,24.1c-0.6,1.3-0.6,3.4,0,4.7
		c3.6,7.6,7.7,15,11,22.8c1.9,4.6,4.5,6.3,9.4,5.6C307.2,197.8,310.7,198.1,314.1,198.1z M256,231.8c4.8,0,9.6-0.1,14.4,0.1
		c2.2,0.1,3.4-0.8,4.3-2.7c4-8,8.3-15.9,12.2-23.9c0.6-1.2,0.6-3.2,0.1-4.4c-4.1-8.6-8.4-17.2-12.8-25.7c-0.6-1.2-2.5-2.5-3.9-2.5
		c-9.5-0.2-18.9-0.2-28.4,0c-1.4,0-3.3,1.2-3.9,2.4c-4.4,7.9-8.6,16-12.7,24.1c-0.6,1.2-0.7,3.2-0.1,4.4c4.1,8.6,8.5,17.1,12.7,25.7
		c0.9,1.9,2.1,2.5,4.1,2.4C246.6,231.8,251.3,231.8,256,231.8z M255.8,162c4.9,0,9.9,0.1,14.8-0.1c1.2-0.1,3-0.9,3.6-1.9
		c4.5-8.2,8.8-16.5,13-24.8c0.5-0.9,0.5-2.5,0-3.4c-4.8-8.4-9.7-16.8-14.7-25.2c-0.6-0.9-2.1-1.8-3.2-1.9c-9.9-0.1-19.7-0.2-29.6,0
		c-1.2,0-2.9,1-3.5,2c-4.4,8.1-8.7,16.2-12.8,24.5c-0.5,1.1-0.4,2.9,0.2,4c4.5,8.2,9.1,16.3,13.9,24.3c0.7,1.1,2.5,2.1,3.8,2.2
		C246.2,162.2,251,162,255.8,162z M119.1,106.5c14.4,0,28.8,0,43.2,0c3.3,0,5.5-1,5.7-4.5c0.3-3.4-1.7-5-6.3-5
		c-25.6,0-51.3,0-76.9,0c-3.2,0-6.4-0.4-9.4,0.2c-1.7,0.3-3.8,2-4.5,3.6c-1.3,3.1,1.4,5.7,5.4,5.7
		C90.6,106.6,104.8,106.5,119.1,106.5z M126,34.9c14.9,4.4,36.9-6.5,40.6-23.7C149.1,7.8,131.2,18.2,126,34.9z M112.7,34.9
		C107.5,18,87.6,6.6,72.1,11.5C75.3,27,96.5,39.3,112.7,34.9z"/>
	<path d="M63.8,321.2c11.2-0.1,20.8,9.4,21,20.6c0.2,11.1-9.4,20.7-20.7,20.8c-11.2,0.1-20.6-9.1-20.7-20.4
		C43.3,331,52.6,321.4,63.8,321.2z M63.9,352.2c5.8,0,9.9-4.1,9.9-10c0.1-6-3.9-10.2-9.7-10.3c-5.8-0.1-10.3,4.4-10.2,10.3
		C54,347.9,58.2,352.2,63.9,352.2z"/>
	<path d="M151,314.2c0,10.6-8.3,19-18.9,19c-10.6,0-19-8.4-19-18.9c0-10.3,8.5-18.8,18.8-18.9C142.4,295.3,151,303.7,151,314.2z
		 M132,322.7c5.1,0,8.5-3.4,8.4-8.5c0-4.9-3.4-8.3-8.2-8.4c-4.9-0.1-8.5,3.6-8.5,8.6C123.7,319.3,127.1,322.7,132,322.7z"/>
	<path d="M185.3,367.5c-9.4-0.1-16.9-7.9-16.8-17.3c0.1-9.2,7.8-16.7,17.1-16.6c9.2,0.1,16.8,7.7,16.8,16.9
		C202.4,359.9,194.6,367.6,185.3,367.5z M185.5,356.9c3.8,0,6.5-2.7,6.4-6.4c0-3.6-2.9-6.5-6.5-6.5c-3.6,0-6.4,2.9-6.4,6.6
		C179,354.3,181.7,356.9,185.5,356.9z"/>
	<path d="M109.5,254.3c-14.2-0.1-26-12-25.8-26.2c0.2-14.2,12.2-26,26.3-25.8c14.4,0.3,25.9,12,25.8,26.3
		C135.6,242.8,123.8,254.4,109.5,254.3z M109.7,243.7c9,0,15.5-6.5,15.5-15.6c0-8.9-6.7-15.6-15.6-15.5c-8.8,0-15.1,6.4-15.2,15.4
		C94.4,237.2,100.7,243.7,109.7,243.7z"/>
	<path d="M137.4,169.2c0,10.9-8.5,19.4-19.4,19.4c-10.5-0.1-19.2-9-19.1-19.5c0.1-10.6,8.9-19.3,19.4-19.3
		C128.9,149.8,137.4,158.5,137.4,169.2z M118.1,177.9c5.3,0,8.8-3.5,8.7-8.8c0-5-3.5-8.6-8.5-8.8c-5-0.1-8.9,3.8-8.8,8.9
		C109.5,174.3,113,177.9,118.1,177.9z"/>
</g>
</svg>
