<?xml version="1.0" encoding="utf-8"?>
<!-- Generator: Adobe Illustrator 26.2.1, SVG Export Plug-In . SVG Version: 6.00 Build 0)  -->
<svg version="1.1" id="Layer_1" xmlns="http://www.w3.org/2000/svg" xmlns:xlink="http://www.w3.org/1999/xlink" x="0px" y="0px"
	 viewBox="0 0 383.7 383" style="enable-background:new 0 0 383.7 383;" xml:space="preserve">
<g>
	<path d="M348.2,0c3.2,0.9,6.5,1.6,9.6,2.8c16.9,6.5,27.3,23.5,25.4,41.5C381.3,62,367.9,76.4,350,79.3c-6.3,1-9.9,3.9-11.4,10.4
		c-0.8,3.6-3.4,7.2-6.1,10c-17.1,18-34.5,35.7-51.7,53.5c-1,1.1-2,2.2-3.8,4c2,0,3.3,0,4.6,0c24.1,0,48.1,0.7,72.2-0.2
		c17.9-0.7,33.1,11.9,28.7,34.4c-11.2,56.6-41.1,99.9-90.4,129.8c-0.5,0.3-1,0.7-1.8,1.2c0.7,1.2,1.3,2.4,2.1,3.5
		c4.9,7.8,9.9,15.6,14.9,23.3c4.8,7.4,5.8,15.1,1.4,22.9c-4.3,7.6-11.2,11-19.9,11c-60.3,0-120.7,0-181,0c-8.6,0-15.5-3.3-19.8-11
		c-4.3-7.7-3.5-15.3,1.2-22.6c5.7-8.9,11.4-17.8,17-26.7c-7.3-5-14.6-9.5-21.3-14.8c-38.8-30.2-62.5-69.5-71.1-118
		c-2.1-11.9,0.4-21.8,10.7-28.8c4.5-3,9.5-4,14.9-4c43.4,0,86.8,0,130.1,0.1c3.4,0,5.7-1,8.1-3.4c35.3-34.5,70.7-68.9,106.3-103.1
		c2.8-2.7,6.6-5.2,10.4-6.1c6.2-1.5,8.8-5,9.8-11c2.8-16.3,12.5-26.7,28-31.9c2.1-0.7,4.3-1.1,6.4-1.7C341.7,0,344.9,0,348.2,0z
		 M198.1,168.8c0-0.1,0-0.2,0-0.3c-8.7,0-17.4,0-26.2,0c-43.8,0-87.5,0-131.3,0c-1.6,0-3.2,0.1-4.8,0.3c-7.6,1.1-12.8,8.1-11.5,15.6
		c1.3,7.5,2.7,14.9,4.7,22.2c23.4,83.4,103.7,136.7,188.4,127.1c22.9-2.6,44.5-9,64.5-20.2c47.8-26.7,77.1-67.2,88.5-120.7
		c0.6-2.8,1-5.6,1.4-8.5c1.4-9-5.3-15.9-15.7-15.9c-31.5,0-63.1,0.2-94.6,0.3C240.5,168.9,219.3,168.8,198.1,168.8z M190.9,156.7
		c0.9,0.2,1.3,0.4,1.6,0.4c22.2,0,44.4,0.1,66.6-0.1c1.4,0,3-1,4-2c20.5-21,40.9-42,61.2-63c1.5-1.6,3-3.6,3.5-5.6
		c2.5-11.2,9.7-16.7,20.8-18.3c13.9-2,24.6-15.9,23.3-29.8C370.7,23.1,359.1,12,344,11.5c-14.4-0.5-26.6,10.1-28.9,25
		c-1.4,9.6-6.7,15.7-15.9,18.8c-3.1,1-6.2,2.6-8.5,4.8c-18,17.2-35.9,34.6-53.7,52C221.7,126.8,206.5,141.6,190.9,156.7z M280,328
		c-54.6,24.9-109.1,24.8-163.8,0c-6.3,9.9-12.7,19.6-18.6,29.7c-3.3,5.6,0.6,12.4,7.1,13.6c1.7,0.3,3.5,0.3,5.2,0.3
		c58.8,0,117.7,0,176.5,0c1.7,0,3.5,0,5.2-0.3c6.8-1.2,10.5-8.2,6.9-14.2C292.5,347.3,286.2,337.7,280,328z"/>
	<path d="M0.3,71.1c1.6-2.7,4-3.8,7.1-4c18.2-1.6,35.7-0.3,50.9,11.3C71,88,77.6,100.8,75.8,117.2c-1.3,11.8-7.9,17.8-19.7,18.2
		C36.4,136,21.2,125.1,15.8,106C12.5,94.6,7.6,84.1,0.3,74.8C0.3,73.6,0.3,72.3,0.3,71.1z M57.9,123.3c-1.6-1.8-2.9-3.3-4.3-4.7
		c-5.9-5.3-11.9-10.7-17.9-15.9c-3.3-2.9-4.1-5.9-2-8.7c2.2-2.9,5.7-2.9,9.2-0.1c0.3,0.2,0.6,0.5,0.9,0.7c6.9,6,13.8,12.1,21.1,18.5
		c-0.2-2.2-0.2-4.2-0.6-6C61.3,94.3,53,86.3,41.1,81.7c-7.8-3-15.9-4.1-23.6-3.8c3.4,9.5,6.7,18.7,10.1,27.9c0.9,2.3,2,4.6,3.4,6.6
		C37,121,48.8,125.9,57.9,123.3z"/>
	<path d="M174.8,31c6.8,0.5,13,0.9,19.2,1.3c2.8,0.2,5.6,1,6.1,3.9c0.3,2-0.3,4.8-1.5,6.4c-10.6,14.1-17.8,29.9-22.5,46.8
		c-7.2,26-24.2,41.6-51,45.4c-7.2,1-14.9-0.3-22.2-1.5c-6.7-1.1-10.9-6-13.7-12.1C82.8,107,84,92.8,89.8,78.8
		c9.3-22.6,27.1-35.7,49.8-42.8c5.3-1.6,10.8-2.9,16.4-3.6C162.4,31.6,168.9,31.4,174.8,31z M97.6,111.2
		c8.5-8.2,16.5-16.3,24.9-24.1c5.2-4.8,10.8-9.2,16.4-13.6c3-2.4,6.1-2.1,8.3,0.4c2.2,2.6,1.7,5.9-1.3,8.5c-0.9,0.8-1.9,1.6-2.9,2.3
		c-12.5,10.2-24.6,20.6-35,33.1c-1.1,1.3-1.9,2.7-3,4.3c1,0.4,1.4,0.6,1.9,0.7c24,6.4,50.2-8.4,57.2-32.8
		c4.6-16.1,10.5-31.6,19.5-45.8c0.2-0.3,0.1-0.7,0.2-1.3c-11.1-0.6-22-0.2-32.7,2.1c-17.7,3.8-33.1,11.5-44.1,26.4
		C98.2,83.3,94.6,96.6,97.6,111.2z"/>
	<path d="M203.8,245.8c7.4,0,14.5,0,21.6,0c2.2,0,4.5-0.1,6.7,0.1c4.1,0.3,6.3,2.5,6.1,6c-0.1,3.3-2.5,5.4-6.3,5.4
		c-7.6,0.1-15.2,0-22.8,0c-1.6,0-3.2,0-5.3,0c0,4.3,0,8.4,0,12.4c0,5,0,10,0,15c0,4.7-2,7.1-5.7,7.1c-3.7,0-5.5-2.4-5.6-7.2
		c0-7.7,0-15.5,0-23.2c0-1.2,0-2.4,0-4.1c-7.9,0-15.5,0-23.1,0c-1.7,0-3.5,0.1-5.2,0c-3.8-0.2-6.1-2.3-6.2-5.6c0-3.4,2.1-5.7,6-5.7
		c8-0.2,15.9-0.1,23.9-0.1c1.4,0,2.7,0,4.6,0c0-4.9,0-9.5,0-14c0-4.5,0-9,0-13.5c0-4.4,2.1-6.8,5.7-6.7c3.6,0.1,5.5,2.4,5.5,6.9
		c0,7.7,0,15.5,0,23.2C203.8,242.9,203.8,244.2,203.8,245.8z"/>
</g>
</svg>
