<?xml version="1.0" encoding="utf-8"?>
<!-- Generator: Adobe Illustrator 26.2.1, SVG Export Plug-In . SVG Version: 6.00 Build 0)  -->
<svg version="1.1" id="Layer_1" xmlns="http://www.w3.org/2000/svg" xmlns:xlink="http://www.w3.org/1999/xlink" x="0px" y="0px"
	 viewBox="0 0 383.7 383" style="enable-background:new 0 0 383.7 383;" xml:space="preserve">
<g>
	<path d="M311.4,158.6c8.1,1,11.8,6.3,13.3,13.6c0.2,1.2,0.5,2.3,0.8,3.5c1.1,5,3.9,7.8,8.8,8.5c0.9,0.1,2-0.5,2.8-1
		c2.9-1.7,5.6-3.6,8.6-5.2c6.1-3.2,11.6-2.4,16.5,2.4c2.7,2.6,5.4,5.3,8,8c4.6,4.8,5.5,9.8,2.6,15.8c-1.1,2.3-2.4,4.6-3.9,6.5
		c-2.5,3.2-2.8,6-1,9.8c1.3,2.7,2.8,3.8,5.4,4.3c3.1,0.6,6.3,1.3,9.3,2.4c6,2.2,8.9,6.4,8.9,12.9c0,3.8,0,7.5,0,11.3
		c0,6.8-3.4,11.4-9.9,13.4c-2.3,0.7-4.6,1.5-7,1.7c-4,0.3-6,2.3-7.3,6c-1,2.7-1,4.6,0.7,6.9c2.2,3.2,4.2,6.6,5.7,10.1
		c1.9,4.9,0.7,9.5-3,13.3c-2.8,2.9-5.6,5.8-8.5,8.5c-4.8,4.6-9.9,5.4-15.8,2.5c-2.3-1.1-4.6-2.4-6.5-3.9c-3.2-2.6-6-2.7-9.8-0.9
		c-2.5,1.2-3.7,2.5-4.2,5.1c-0.5,2.9-1.1,5.8-2,8.6c-1.8,5.5-5.3,9.1-11.4,10c-1.1,0.2-2.5,1.3-3,2.4c-4.5,8-11.1,12.1-20.3,12
		c-7.2,0-14.5-0.1-21.7,0.1c-1.2,0-3.2,1.1-3.4,2.1c-1.9,7.4-6.8,12.4-12.8,16.4c-11.8,8-25.2,11.8-38.9,14.2
		c-28.7,4.9-57.4,4.6-85.5-3.9c-8.6-2.6-16.8-6.9-24.6-11.4c-6.3-3.6-10.6-9.4-11.8-17.5c-1.5,0-2.9,0-4.4,0c-11.5,0-23.1,0-34.6,0
		c-12.6-0.1-21.7-9.3-21.8-21.9c0-59.2,0-118.3,0-177.5c0-1.6,0-3.2,0-5c-10.1,2.2-19.1,0.9-26.8-5.6c-15.5-12.9-13.3-36.9,4.4-47.3
		c17.6-10.3,35.2-20.4,52.9-30.6C91.3,41.1,122.8,23,154.2,4.7c10.7-6.2,21.2-6.4,31.9-0.2c48.9,28.3,97.9,56.5,146.8,84.8
		c11.7,6.8,17.1,18,15.1,30.7c-1.8,11.5-10.4,20.6-22.5,22.8c-4.5,0.8-9.3,0.1-14.1,0.1C311.4,147.9,311.4,153,311.4,158.6z
		 M298.2,158.6c0-7.1,0.1-14.1-0.1-21.1c0-1.1-1.4-2.4-2.5-3.1c-40.9-23.7-81.9-47.3-122.8-71c-1.9-1.1-3.2-1.1-5.1,0
		C127,87,86.2,110.6,45.3,134.1c-2.1,1.2-3,2.5-3,5c0.1,61.6,0,123.1,0.1,184.7c0,7.2,3.1,10.3,10.3,10.3c11.3,0,22.5,0,33.8,0
		c1,0,2.1-0.2,3.4-0.3c0-1.8,0-3.4,0-5c0-42.3,0.2-84.5-0.1-126.8c-0.1-11.1,4.5-19,13.3-25c8.7-5.9,18.3-9.3,28.4-11.9
		c23.8-6,48-6.9,72.2-3.8c14.7,1.9,29,5.1,42.1,12.4c3.3,1.8,6.2,3.3,10.3,2.5c2.7-0.5,6,1.1,8.7,2.3c2.8,1.2,5.2,3.2,7.9,4.8
		c0.8,0.4,1.7,0.9,2.5,0.8c4.4-0.5,7.7-3.6,8.7-8.1c0.3-1.3,0.6-2.6,0.9-3.9C286.4,164.8,290,159.6,298.2,158.6z M21.5,131.4
		c3.1-1.3,6.5-2.3,9.4-4c44.4-25.5,88.7-51,132.9-76.8c4.7-2.7,8.3-2.7,12.9,0c44.6,25.9,89.2,51.7,133.9,77.4
		c8.4,4.8,18,2.8,22.3-4.6c4.9-8.4,2.4-17.6-6.4-22.7c-48.9-28.3-97.9-56.5-146.8-84.8c-6.4-3.7-12.5-3.8-18.9,0
		c-19.8,11.6-39.7,22.9-59.5,34.3C72.1,67.1,42.9,84,13.7,100.9c-7.4,4.3-9.9,10.7-7.6,18.8C8,126.3,14,130.7,21.5,131.4z
		 M248.1,198.2c2.7,4.4,5.3,8.6,8,12.7c1.7,2.7,1.8,5.4,0.3,8.3c-1.5,3-3.2,6-4,9.2c-1.2,4.9-3.9,7.4-8.7,8
		c-1.3,0.2-2.6,0.6-3.9,0.9c-9.3,2.2-9.2,2.2-9,11.8c0,2.4,0.9,3.4,3.1,3.8c3.8,0.8,7.6,1.7,11.4,2.5c3.5,0.7,5.6,2.6,6.8,6
		c1.1,3.4,2.4,6.8,4.1,10c1.9,3.6,1.8,6.7-0.5,10.1c-2.6,3.8-5,7.9-7.7,12.2c2.5,2.4,5,4.4,7.2,6.8c1.5,1.6,2.7,1.8,4.5,0.5
		c3.4-2.3,6.8-4.9,10.6-6.5c2.3-1,5.4-1.1,7.9-0.4c4,1.1,7.6,3.2,11.5,4.6c3.1,1.1,4.9,3,5.6,6.2c1,4.9,2.3,9.8,3.5,14.8
		c3.5,0,6.6-0.2,9.6,0.1c2.4,0.2,3.4-0.8,3.8-3c0.8-3.8,1.7-7.6,2.5-11.4c0.7-3.4,2.5-5.7,6-6.8c3.8-1.2,7.3-3.4,11.1-4.5
		c2.5-0.7,5.4-0.3,7.9,0.3c1.9,0.4,3.4,2,5.1,3.1c8.2,5.2,8.2,5.1,15-2c1.5-1.5,1.7-2.7,0.5-4.5c-2.3-3.4-4.4-7-6.7-10.5
		c-1.8-2.8-1.7-5.4-0.3-8.4c1.7-3.5,3.3-7,4.5-10.7c1.1-3.5,3.3-5.3,6.7-6c4.8-1,9.5-2.2,14.2-3.3c0-4.5,0-8.5,0-12.7
		c-4.8-1.1-9.4-2.4-14.1-3.3c-3.8-0.7-5.8-2.7-6.9-6.3c-1.2-3.5-2.7-7-4.3-10.3c-1.5-3.1-1.5-5.8,0.4-8.7c2.2-3.3,4.4-6.7,6.4-10.2
		c0.6-1,0.7-3.1,0.1-3.7c-2.7-2.6-5.7-4.8-8.6-7.1c-0.2-0.2-1.3,0.7-2,1.2c-3.1,1.9-6.2,3.8-9.2,5.8c-3.1,2.1-6,2.3-9.4,0.6
		c-3.3-1.7-6.8-3.2-10.4-4.3c-3.5-1.1-5.4-3.3-6.1-6.7c-0.8-3.9-1.6-7.9-2.7-11.7c-0.3-1.1-1.7-2.5-2.7-2.6
		c-3.4-0.3-6.9-0.1-10.6-0.1c-1.2,5-2.5,9.6-3.4,14.4c-0.7,3.8-2.8,5.8-6.4,6.9c-3.3,1.1-6.6,2.3-9.6,4c-3.6,2-6.8,1.7-10.1-0.5
		c-3.9-2.6-7.9-5-11.8-7.5C254,192.1,251.2,195,248.1,198.2z M103.1,318.1c0,7.4,0.3,15.4-0.1,23.4c-0.3,5.7,1.9,9.9,6.4,12.5
		c6.1,3.5,12.4,7,19.1,9.1c28.4,8.7,57.3,8.7,86.3,3c10.5-2.1,20.9-5.2,29.6-11.8c2.7-2.1,6.1-5.3,6.3-8.3
		c0.8-9.5,0.3-19.1,0.3-27.9C201.7,339.7,152.7,339.5,103.1,318.1z M241.6,186.1c-3.5-1.6-6.2-3-9-4.1c-15.6-6.2-32-8.5-48.7-9
		c-19-0.5-37.8,0.8-56,6.7c-8.1,2.6-15.9,5.7-21.9,12.1c-4.2,4.4-4.1,9,1,12.2c4.8,3,10.1,5.7,15.6,7.1c31.1,7.8,62.6,7.8,94.1,2.7
		c7.3-1.2,14.3-3.8,21.9-6C233.7,199.3,233.9,192.4,241.6,186.1z M103.1,267.9c0,9.3-0.3,17.9,0.2,26.4c0.1,2.8,1.4,6.5,3.4,8
		c5.3,3.9,11,7.9,17.1,10c31.2,10.9,63,10.7,95,3.6c8.3-1.9,16.4-4.6,23.8-9.5c-0.9-1-1.7-1.8-2.4-2.5c-6-6.1-6.7-11.8-2.3-19.2
		c1.4-2.3,3-4.4,4.2-6.8c0.7-1.4,0.6-3.1,1-5.6c-23.4,10.1-46.9,13-70.7,12.4C148.5,284.2,125,280.7,103.1,267.9z M242.1,221
		c-47.4,12.9-93.2,12.9-139-2.4c0,7.5,0.4,15.7-0.1,23.8c-0.5,7,2.4,11.9,8.1,14.8c7.1,3.6,14.4,7.1,22.1,9.3
		c22.2,6.2,45,6.6,67.7,3.9c8.7-1,17.2-3.2,25.8-4.9c0-0.3,0.1-0.7,0.1-1c-7.4-3.1-9.6-8.9-9-16.3c0.2-2.4,0-4.8,0-7.2
		c0-7.6,3.6-12.4,10.9-14.4c3.1-0.9,6.3-1.3,9.3-2.3C239.3,223.7,240.3,222.4,242.1,221z M294.3,332.6c-4.3-2.3-7.2-5.5-8.5-10
		c-0.7-2.4-1.3-4.9-1.9-7.4c-1.7-7.2-7.4-9.7-13.6-5.8c-1.5,0.9-3,1.8-4.4,2.8c-0.7,0.5-1.5,1.4-1.5,2.1c-0.1,6.5-0.1,13-0.1,19.8
		C274.7,333.5,284.5,335.2,294.3,332.6z"/>
	<path d="M172.8,143.6c-16.5,0-29.6-13.3-29.4-29.7c0.2-16.3,13.3-29.3,29.5-29.3c16.4,0,29.5,13.3,29.5,29.7
		C202.3,130.6,189.1,143.7,172.8,143.6z M172.7,130.6c9.2,0,16.7-7.3,16.7-16.4c0-8.9-7.7-16.7-16.6-16.6c-8.9,0-16.3,7.4-16.4,16.3
		C156.4,123.3,163.5,130.6,172.7,130.6z"/>
	<path d="M304.4,279.6c-19.2-0.2-33.8-15.4-33.6-35c0.2-18.3,15.8-33,34.6-32.8c18.5,0.3,33.5,15.6,33.2,34.2
		C338.4,264.9,323.2,279.8,304.4,279.6z M325.6,245.9c0.1-11.6-9.1-21.1-20.6-21.2c-11.7-0.1-21.4,9.4-21.4,21
		c0,11.4,9.4,20.9,20.9,21C316.2,266.7,325.6,257.5,325.6,245.9z"/>
</g>
</svg>
