<svg id="Layer_1" data-name="Layer 1" xmlns="http://www.w3.org/2000/svg" viewBox="0 0 121.64 121.65">
  <defs>
    <style>
      .cls-1 {
        fill: #231f20;
      }
    </style>
  </defs>
  <g>
    <path class="cls-1" d="M76.39,86.92c1.07-.51,2.19-1,3.23-1.56q10.36-6,20.71-12a24.11,24.11,0,0,1,9.46-3.58c3.46-.38,6.52.51,8.5,3.55a8.44,8.44,0,0,1,.08,9.42,7.83,7.83,0,0,1-2.58,2.54C103,93.17,90.22,101,77.44,108.92A16.39,16.39,0,0,1,64,110.82c-8.58-2.31-17.16-4.6-25.73-6.93a2.92,2.92,0,0,0-2.77.35,22.91,22.91,0,0,1-2.32,1.37c.56,1,1.1,1.94,1.63,2.9a5.09,5.09,0,0,1-2,7.33c-1.87,1.1-3.77,2.17-5.68,3.2a5,5,0,0,1-7.12-2q-8.76-15.4-17.46-30.85a5,5,0,0,1,2-7.22q2.82-1.64,5.68-3.2a5.06,5.06,0,0,1,7.07,1.92c.48.81.94,1.64,1.46,2.53l5.19-3c4.53-2.59,9-5.27,13.62-7.71a15.47,15.47,0,0,1,13-.9c5.75,2.07,11.62,3.8,17.45,5.65.75.24,1.54.34,2.31.51a8,8,0,0,1,5.9,11.39c-.06.14-.11.29-.16.43ZM31.28,102.26a40,40,0,0,1,3.8-2.14,4.1,4.1,0,0,1,2.45-.32q13.62,3.54,27.22,7.24a12.8,12.8,0,0,0,10.59-1.35Q94.59,93.85,113.8,82a4.48,4.48,0,0,0,1.67-2c1.42-3.57-1-6.73-4.86-6.39a20.36,20.36,0,0,0-8.37,3.12Q91.79,82.73,81.35,88.83a15.18,15.18,0,0,1-11.19,2c-5.62-1.23-11.19-2.7-16.77-4.12a1.91,1.91,0,1,1,.92-3.7c1,.21,2,.54,3,.8,3.67.95,7.31,2,11,2.83a3.88,3.88,0,0,0,4.94-3.22,4.18,4.18,0,0,0-3.29-4.76c-.5-.12-1-.18-1.51-.33-6-1.88-12.12-3.55-18-5.73a13.51,13.51,0,0,0-12,.87c-5.77,3.29-11.51,6.63-17.26,9.94-.1.06-.19.14-.35.25Zm.65,9.18c-.22-.49-.34-.82-.51-1.13L14.19,79.87c-.63-1.1-1.15-1.26-2.22-.66-1.8,1-3.58,2-5.37,3A1.37,1.37,0,0,0,6,84.39Q14.66,99.7,23.32,115a1.34,1.34,0,0,0,2.07.63c1.85-1,3.72-2.08,5.56-3.17A5.19,5.19,0,0,0,31.93,111.44Z"/>
    <path class="cls-1" d="M75,29c.18-3.23-.69-6.64,2.11-9.27-2.86-3-2.34-6.65-1.82-10.13a6.39,6.39,0,0,1,6.54-5.27q15.56,0,31.12,0A6.74,6.74,0,0,1,119.67,11c0,.71,0,1.43,0,2.14.15,2.41-.2,4.66-2,6.42a11.86,11.86,0,0,1,0,13.55,11.88,11.88,0,0,1,0,13.53c2.73,3,2.21,6.62,1.69,10.1A6.42,6.42,0,0,1,112.83,62q-6.3,0-12.59,0a1.48,1.48,0,0,0-1.42.78A22.33,22.33,0,1,1,74,29.28Zm5,40.3A18.48,18.48,0,1,0,61.5,50.82,18.57,18.57,0,0,0,80,69.28ZM97.34,8.1h-15c-2.32,0-3.5,1.19-3.54,3.51,0,.67,0,1.35,0,2,0,3.13,1,4.14,4.1,4.14h28.87a11.63,11.63,0,0,0,1.18,0,3,3,0,0,0,2.88-3.06c0-.95,0-1.9,0-2.85,0-2.55-1.16-3.72-3.69-3.72ZM78.87,28.39a3.42,3.42,0,0,0,.48.1,22.36,22.36,0,0,1,11,2.48,2.36,2.36,0,0,0,1,.21q10.68,0,21.37,0a3,3,0,0,0,3.15-3,35.23,35.23,0,0,0,0-3.56,3,3,0,0,0-3.14-3q-15.37,0-30.74,0a2.9,2.9,0,0,0-3.09,2.8C78.78,25.71,78.87,27,78.87,28.39Zm17.28,6.76a1.88,1.88,0,0,0,.19.4,24.1,24.1,0,0,1,5,8.51,1.27,1.27,0,0,0,1,.61c3.44,0,6.88,0,10.32,0a3,3,0,0,0,3.19-3.1c0-.86,0-1.74,0-2.61,0-2.88-1-3.9-3.94-3.9H97.36C97,35.08,96.61,35.12,96.15,35.15Zm5.3,23.05c3.65,0,7.45,0,11.25,0a3,3,0,0,0,3.17-3.26c0-.91,0-1.82,0-2.73,0-2.48-1.16-3.66-3.62-3.67-3,0-6,0-9,0a3.3,3.3,0,0,0-.64.07C102.21,51.86,101.84,55,101.45,58.2Z"/>
    <path class="cls-1" d="M43.62,20c-1.27,0-2.37,0-3.47,0-1.78,0-2.68-1.54-1.72-3Q43,9.84,47.76,2.8a1.84,1.84,0,0,1,3.19,0Q55.71,9.86,60.34,17c.92,1.41,0,2.88-1.73,2.93-.55,0-1.11,0-1.66,0H55.11v1.45q0,10.62,0,21.24c0,2.22-.52,2.73-2.71,2.73H46c-1.73,0-2.36-.63-2.36-2.36q0-10.74,0-21.48Zm-.08-3.83c.45,0,.69,0,.92,0,2.59,0,3,.43,3,3.06V41.49h3.84V33c0-4.79,0-9.58,0-14.37,0-1.76.67-2.41,2.44-2.42h1.5L49.36,7.32Z"/>
    <path class="cls-1" d="M14,85.28a2.09,2.09,0,0,1-2,2.18,2.16,2.16,0,0,1-2.28-2.07,2.19,2.19,0,0,1,2.17-2.2A2.13,2.13,0,0,1,14,85.28Z"/>
    <path class="cls-1" d="M82,62.66c-.29,2.33-.71,2.94-2,2.93s-1.79-.69-2-2.83a34.39,34.39,0,0,1-3.39-1.66,6.74,6.74,0,0,1-3-4.36,1.9,1.9,0,0,1,1.23-2.27,1.92,1.92,0,0,1,2.37,1.09A5.46,5.46,0,0,0,83,58.29a2.32,2.32,0,0,0,1.64-2,2.38,2.38,0,0,0-1.39-2.53c-1.26-.54-2.62-.84-3.93-1.26a22.6,22.6,0,0,1-3.56-1.21,6.27,6.27,0,0,1-.91-10.72,6.14,6.14,0,0,1,1.84-1.05c1-.31,1.6-.64,1.53-1.9C78.11,36.61,79,36,80,36a1.76,1.76,0,0,1,1.88,1.73c0,1.08.4,1.47,1.36,1.77a7.3,7.3,0,0,1,4.36,3.95,2,2,0,0,1-.67,2.88c-1,.54-2,.15-2.72-1.1a4.69,4.69,0,0,0-6.41-2,2.78,2.78,0,0,0-1.7,2.62,2.38,2.38,0,0,0,1.79,2.27c1,.37,2.14.54,3.19.86a24.1,24.1,0,0,1,3.78,1.31,6.2,6.2,0,0,1,3.64,6.05c-.09,2.75-1.72,4.5-4.16,5.55C83.6,62.2,82.83,62.39,82,62.66Z"/>
  </g>
</svg>
