<svg id="Layer_1" data-name="Layer 1" xmlns="http://www.w3.org/2000/svg" viewBox="0 0 121.64 121.65">
  <defs>
    <style>
      .cls-1 {
        fill: #231f20;
      }
    </style>
  </defs>
  <path class="cls-1" d="M31.58,121.64c-1.46-1.52-1.58-3.55-.28-6.19a9.81,9.81,0,0,1,8.88-5.92c2.22-.09,4.44,0,6.65-.08a2.52,2.52,0,0,0,1.54-.62c2-1.86,3.85-3.77,5.71-5.71a2.1,2.1,0,0,0,.56-1.33q0-36.3,0-72.58c0-.19,0-.39,0-.67a7.66,7.66,0,0,0-.91-.1c-5.79,0-11.57,0-17.35.07a19.62,19.62,0,0,0-7.87,1.94c.18.44.34.87.52,1.28,6.17,13.47,12.25,27,18.56,40.37a9.58,9.58,0,0,1-.21,8.73C44.91,86.05,40.71,89,35,89.15c-7.51.18-15.05.19-22.56-.13C5.91,88.74.2,82.45,0,76A6.29,6.29,0,0,1,.6,73.24Q10,52.53,19.53,31.86c.16-.36.32-.72.55-1.22l-4.79-2.47,1.81-3.64,4.6,2.28c2.31-3.31,3.16-3.34,5.09-.18a25.78,25.78,0,0,1,3.67-1.2,55.2,55.2,0,0,1,8-1.1c4.94-.17,9.89,0,14.84,0H54.6v-4H50.7V16.22h3.41c-.46-1.84-.89-3.54-1.31-5.24-1.18-4.75,1-9.08,5.32-10.52A8.34,8.34,0,0,1,69,9.93c-.4,2.05-1,4.07-1.47,6.22h3.35v4.1H67v4h1.22c4.63,0,9.26,0,13.9,0a29.07,29.07,0,0,1,12.15,2.22,4.92,4.92,0,0,0,.55.14c1.44-3.28,3.81-2.94,5,.21l4.68-2.3,1.81,3.64-4.75,2.4c.14.38.23.68.36,1q9.75,21.33,19.53,42.66c0,.07.11.11.17.16V77a5.2,5.2,0,0,0-.25.76c-1.12,6.05-6.38,11.08-12.53,11.32-7.35.29-14.73.35-22.08.09A13.88,13.88,0,0,1,73.27,78a7.89,7.89,0,0,1,.52-5.39c6.3-13.58,12.51-27.2,18.75-40.81.2-.45.38-.9.57-1.34a19.69,19.69,0,0,0-7.88-2c-5.78-.05-11.56-.05-17.34-.06a7.23,7.23,0,0,0-.91.1c0,.28,0,.48,0,.67q0,36.29,0,72.58a2.15,2.15,0,0,0,.56,1.33c1.87,1.94,3.77,3.85,5.71,5.71a2.57,2.57,0,0,0,1.54.62c2.22.08,4.44,0,6.65.08a9.83,9.83,0,0,1,8.89,5.92c1.29,2.64,1.18,4.67-.28,6.19Zm84.78-48.75q-9.3-20.31-18.51-40.39c-1-.34-1.28.31-1.58,1Q88.16,51.21,80,68.92c-.58,1.28-1.17,2.57-1.8,4Zm-73,0c-.19-.45-.33-.81-.49-1.16Q34.09,52.6,25.31,33.5c-.19-.42-.67-.71-1-1.06a5.06,5.06,0,0,0-1,1.08Q14.5,52.63,5.75,71.75c-.16.35-.29.71-.46,1.14ZM4.39,77.1a9.76,9.76,0,0,0,9,7.94c7.16.09,14.33.07,21.49,0a9.42,9.42,0,0,0,7.31-3.61,8,8,0,0,0,2-4.35Zm112.78,0H77.41a5.45,5.45,0,0,0,0,.64c.9,3.77,4.84,7.21,8.73,7.27,7.39.1,14.8.11,22.19,0A9.65,9.65,0,0,0,117.17,77.12ZM62.7,101.27V28.52H58.89v72.75Zm24,16.3a5.84,5.84,0,0,0-5.9-4H40.13c-2.46.17-4.77,2-5.1,4ZM60.74,16.18a9.29,9.29,0,0,1,1.18,0c1,.12,1.49-.16,1.69-1.23.35-1.89.91-3.75,1.34-5.63A4,4,0,0,0,63.2,4.9a4.25,4.25,0,0,0-4.8,0,4,4,0,0,0-1.75,4.42c.34,1.54.73,3.07,1.11,4.6C58.32,16.18,58.33,16.18,60.74,16.18Zm7.1,93.25c-3.24-4-3.24-4-8-4H58.27c-.23,0-.56-.06-.69.07-1.28,1.23-2.54,2.49-3.95,3.9ZM62.67,24.22V20.37H58.9v3.85Z"/>
</svg>
