<?xml version="1.0" encoding="utf-8"?>
<!-- Generator: Adobe Illustrator 26.2.1, SVG Export Plug-In . SVG Version: 6.00 Build 0)  -->
<svg version="1.1" id="Layer_1" xmlns="http://www.w3.org/2000/svg" xmlns:xlink="http://www.w3.org/1999/xlink" x="0px" y="0px"
	 viewBox="0 0 383.7 383" style="enable-background:new 0 0 383.7 383;" xml:space="preserve">
<g>
	<path d="M192.6,160.1c8.8-15.4,20.4-28.6,35.4-38.9c10.5-7.2,22-12,34.7-13.8c4.7-0.6,6.9,0.5,8.8,5c7.4,17.4,7.5,35.3,3.1,53.2
		c-8.2,33-26.1,59.2-56,76.6c-3.4,2-7.2,3.6-10.9,5c-3.7,1.4-7.6,2.4-11.7,3.7c0,13.7,0,27.6,0,42.1c1.4,0,2.8,0,4.2,0
		c17.7,0,35.4,0,53.1,0c6.4,0,8.5,2.1,8.5,8.4c0,8.6,0,17.2,0,25.7c-0.1,16.8-11.5,28.8-28.4,29.6c-8.3,0.4-8.3,0.4-8.3,8.6
		c-0.1,11.9-6,17.7-17.8,17.8c-9.9,0-19.8,0-29.8,0c-9.6,0-16.1-6.5-16.2-16.1c0-3.2,0-6.4,0-10.3c-3.2,0-6.1,0.1-9,0
		c-16.1-0.9-27.6-12.8-27.9-29c-0.1-8.3-0.3-16.6,0-24.9c0.6-15.9-4.3-30-13.4-42.9c-5.2-7.3-10.5-14.6-15.8-21.8
		c-19.8-26.6-27.6-56.9-25.8-89.6c2.7-48.1,25.9-83.9,68.7-105.8c71-36.3,159.1,5.6,175.8,83.5c9,41.9,0.8,80.8-25.4,115.4
		c-4,5.3-8,10.8-12.6,17.1c7.3-2.6,13.5-4.9,19.8-7c5.1-1.7,9.7,2,8.6,7c-0.4,1.9-2.3,4.2-4,4.9c-12.1,4.7-24.3,9-36.6,13.3
		c-4.6,1.6-8.7-1-8.8-5.9c-0.3-12.6-0.2-25.2,0-37.8c0.1-3.9,2.9-6.4,6.4-6.5c3.6-0.1,6.4,2.5,6.6,6.7c0.2,4.2,0,8.4,1,13
		c3.2-4.3,6.4-8.7,9.7-13c20.7-27,27.9-57.8,25-91.1c-4.4-49.2-43.1-89.8-92.2-97.9C151,34.3,93.6,74.7,84,134.6
		c-5.8,36.4,1.9,69.9,24.4,99.7c6.1,8.1,12.1,16.4,17.6,24.9c6.5,10,10.1,21.2,11.2,33.5c15,0,30.1,0,45.5,0c0-6.5,0-12.9,0-19.3
		c0-7.6,0-15.3,0-22.9c0-1.9-0.2-3.1-2.5-3.8c-26.4-8.2-44.8-26.1-58.5-49.3c-12-20.3-18.4-42.2-15.8-66c0.8-7.3,3.3-14.5,5.5-21.6
		c1.3-4.3,4.1-5.3,8.6-4.6c21.6,3.1,38.9,14.1,53.2,29.9C180.2,142.7,186.1,151.5,192.6,160.1z M260.7,120.9
		c-46.2,9.3-79.9,71.6-68.6,110.9c0.8-1.3,1.5-2.4,2.2-3.5c6.6-11.5,13.2-23,19.9-34.4c2.3-3.9,5.8-5,9.1-3c3.3,1.9,4.1,5.6,2.1,9.5
		c-0.9,1.8-2,3.5-3,5.2c-5.3,9.1-10.5,18.2-16,27.7C244.6,218.7,275.4,159.9,260.7,120.9z M137.6,306c0,7.8-0.2,15.2,0.1,22.5
		c0.3,9,6.9,15.1,15.9,15.1c26.4,0.1,52.8,0.1,79.2,0c8.3,0,14.8-5,15.7-13.2c0.8-8,0.2-16.2,0.2-24.5
		C211.7,306,174.9,306,137.6,306z M177.4,201.5c2.3-7.9,4.5-15.5,6.6-23c0.4-1.3,0.5-3,0-4.1c-9.4-20.9-23.3-38.1-43.7-49.2
		c-5.6-3.1-11.9-4.9-17.9-7.3c-15.2,41.6,17.9,101.2,56.4,113.8c-1-2.4-1.6-4.4-2.6-6.2c-4.8-8.5-9.8-16.9-14.6-25.4
		c-2.1-3.8-1.1-7.5,2.2-9.4c3.3-1.8,6.6-0.8,8.9,2.8C174.3,196.2,175.8,198.8,177.4,201.5z M174.2,356.9c0,3.5-0.3,6.7,0.2,9.8
		c0.2,1.3,2.2,3.2,3.5,3.2c10.3,0.3,20.6,0.2,30.9,0c1.1,0,3-1.9,3.2-3c0.4-3.2,0.2-6.6,0.2-10.1
		C199.3,356.9,187.1,356.9,174.2,356.9z"/>
	<path d="M57.4,120c-0.1,4.7-3.9,7.8-8,6.8c-6.7-1.7-13.4-3.5-20.1-5.4c-3.6-1.1-5.5-4.4-4.7-7.7c0.8-3.5,4.3-5.7,8.1-4.8
		c6.6,1.7,13.1,3.5,19.7,5.3C55.6,115.1,57.3,117.3,57.4,120z"/>
	<path d="M346.4,230.7c0.1,6.1-4.7,9.4-9.3,7c-6.4-3.3-12.6-7.1-18.7-10.9c-2.9-1.8-3.6-5.7-1.8-8.5c1.9-3,4.9-4.2,8-2.5
		c6.5,3.4,12.9,7.2,19.1,11.1C345.2,227.8,345.9,230,346.4,230.7z"/>
	<path d="M123.1,30.2c-1.7,1.8-3.1,4.1-5.1,5.3c-2.6,1.6-5.5,0.5-7-1.9c-4-6.4-7.9-13-11.4-19.7c-1.5-2.8-0.4-5.8,2.5-7.7
		c2.9-1.8,6.2-1.7,7.9,1c4.3,6.7,8.1,13.8,12,20.7c0.3,0.4,0.3,1,0.4,1.5C122.6,29.7,122.9,30,123.1,30.2z"/>
	<path d="M334.2,116.9c-4.7,0-6.8-1.7-7.7-4.7c-0.9-3.2,0.2-6.3,3.3-7.3c7.4-2.4,14.9-4.3,22.4-6c3.2-0.7,5.7,1.4,6.6,4.6
		c0.9,3.2-0.3,6.3-3.3,7.3C348.2,113.3,340.5,115.2,334.2,116.9z"/>
	<path d="M75.9,232c-0.6,0.8-1.6,3.1-3.3,4.2c-5.8,3.7-11.7,7-17.7,10.3c-3.5,1.9-7.3,0.8-9-2.3c-1.7-3.2-0.7-6.9,2.8-8.9
		c5.7-3.4,11.5-6.8,17.4-10C70.8,222.7,75.9,225.6,75.9,232z"/>
	<path d="M263.1,30.8c-6.3,0.1-9.4-4.8-7-9.3c3.3-6.3,6.9-12.4,10.6-18.4c2-3.2,5.4-3.9,8.4-2.2c3.1,1.7,4.4,5.3,2.7,8.6
		c-3.4,6.2-6.9,12.4-10.7,18.4C266,29.4,263.8,30.2,263.1,30.8z"/>
</g>
</svg>
