<?xml version="1.0" encoding="utf-8"?>
<!-- Generator: Adobe Illustrator 26.2.1, SVG Export Plug-In . SVG Version: 6.00 Build 0)  -->
<svg version="1.1" id="Layer_1" xmlns="http://www.w3.org/2000/svg" xmlns:xlink="http://www.w3.org/1999/xlink" x="0px" y="0px"
	 viewBox="0 0 383.7 383" style="enable-background:new 0 0 383.7 383;" xml:space="preserve">
<g>
	<path d="M192.2,0c106.2,0.1,191.7,85.9,191.6,192c-0.2,105.6-86.1,191.1-192.1,191C85.5,382.9-0.2,297,0,191
		C0.2,85.3,86.1-0.1,192.2,0z M186.6,110.1c0.4-0.3,0.6-0.4,0.6-0.5c0.2-0.6,0.4-1.3,0.6-2c3.9-16.1,10.7-30.4,24.7-40.2
		c16-11.3,34.3-15,53.6-14.5c3.8,0.1,6.2,2.8,6,6.9c-0.3,7.3-0.5,14.6-1.8,21.7c-5.3,28.6-21.3,47.7-50.2,54.8
		c-7,1.7-14.2,2.6-21.3,3.9c0,23.8,0,47.8,0,72.2c26-16.3,53.8-26,83.8-29.1c30-3.1,59.2,0.8,88.2,11.6
		c-1.8-67.8-29.2-121.3-87.1-155.6c-63.7-37.8-129.1-36-191,4.6c-53.5,35-78.5,86.8-79.8,150.9c60.5-21.1,117.7-15.1,172,17.5
		c0-15.7,0-30.9,0-45.8c-5.2-0.7-10.2-1.2-15-2.2c-16.5-3.2-31.5-9.4-42.2-23c-12.7-16.2-16.6-35.3-16.2-55.4
		c0.1-4.4,2.7-6.5,7.4-6.5C146,79.6,170.2,86.2,186.6,110.1z M230.7,365.7c7.1-2.1,13.9-3.8,20.4-6.2c9.3-3.4,8.6-0.9,7-11.2
		c-7-46.4-28.7-84.6-65.4-113.7c-43.2-34.3-92.5-45.8-146.7-35.5c-10.8,2.1-21.3,5.9-32.1,8.9c0.7,5.1,1.3,9.1,1.9,13.5
		c48.9-6.4,94,3.2,134.8,30.4C191.6,279.3,217.9,317.4,230.7,365.7z M217.7,368.6c-14-50.8-42.8-88.7-88-113.6
		c-34.5-19-71.5-25.3-111.5-20c2.6,7.6,4.9,14.5,7.4,21.3c0.4,1,2.1,1.9,3.4,2.1c7.3,1.4,14.7,2.1,21.9,4
		c59.1,14.8,102,49.7,129.1,104c1.3,2.6,2.8,3.4,5.4,3.4C195.8,369.3,206.3,369,217.7,368.6z M369.5,209
		c-53.4-23-120.7-15.5-164.5,15.7c8.9,8.9,18.1,18,27.5,27.4c40.2-26.7,85.8-37.1,135.2-30.7c0.4-1.9,0.8-3.4,1-4.9
		C369.1,214.2,369.3,211.8,369.5,209z M32.6,272c16.5,31.5,39.3,55.6,69.1,73.2c19.7,11.6,40.7,19.1,64.5,22.5
		C136.5,314.1,92.6,282.7,32.6,272z M258.4,297.7c0.2-0.1,0.6-0.3,0.9-0.5c28.3-21.8,60.2-34.9,95.8-38.9c1-0.1,2.6-0.9,2.9-1.8
		c2.6-7,4.9-14.2,7.3-21.3c-34.5-8.8-102,7-125.7,28.7C245.9,275.1,252.1,286.3,258.4,297.7z M272.8,350.3
		c33.9-17.6,59.9-43.4,78-77.6c-0.8-0.1-1.1-0.2-1.4-0.2c-30.4,4.8-57.7,16.6-82.1,35.3c-3.3,2.5-4,4.6-2.8,8.7
		C267.7,327.6,270.1,338.8,272.8,350.3z M184.7,152.5c-1.8-37.7-21.8-58.7-59.6-59.3C126.9,131.2,146.9,150.5,184.7,152.5z
		 M258.5,66.2c-17.8,1.7-34.5,5.4-46.3,19.8c-9.5,11.6-12.5,25.5-13.4,40.1C236,124.2,257.2,105.1,258.5,66.2z"/>
</g>
</svg>
