<svg id="Layer_1" data-name="Layer 1" xmlns="http://www.w3.org/2000/svg" viewBox="0 0 121.64 121.65">
  <defs>
    <style>
      .cls-1 {
        fill: #231f20;
      }
    </style>
  </defs>
  <g>
    <path class="cls-1" d="M121.64,29.23a4.47,4.47,0,0,1-4,2.87,14.16,14.16,0,0,1-1.86.36c-1.6-.06-2.06,1-2.41,2.22a1.51,1.51,0,0,0,.2,1.07c.66,1.08,1.42,2.1,2.09,3.17a3.58,3.58,0,0,1-.42,4.77c-.86.93-1.76,1.83-2.69,2.69a3.57,3.57,0,0,1-4.68.41C107,46.2,106,45.57,105,44.87c-1.42,2.5-4.07,2.54-6.35,2.71-2.59.19-3.09,1.87-3.75,3.65-.1.27.12.74.31,1,.9,1.4,1.86,2.76,2.76,4.15A4.06,4.06,0,0,1,97.43,62c-1,1-2,2-2.94,2.94a4.13,4.13,0,0,1-5.69.56c-1.39-.91-2.74-1.89-4.15-2.75a2.05,2.05,0,0,0-1.37-.12c-2.21.44-3.25,1.81-3.31,4.08a15.65,15.65,0,0,1-.63,3.13A3.93,3.93,0,0,1,75.51,73c-1.62,0-3.25,0-4.87,0a4,4,0,0,1-4.08-3.42c-.35-1.63-.68-3.25-1-4.88a1.84,1.84,0,0,0-1.1-1.35c-1.86-1.16-3.4-.82-5,.56a17.9,17.9,0,0,1-2.65,1.8,4.06,4.06,0,0,1-5.21-.57c-1.11-1.07-2.21-2.16-3.28-3.28a4,4,0,0,1-.53-5.2c.9-1.44,1.84-2.86,2.84-4.24a1.86,1.86,0,0,0,.17-1.73c-.5-2.12-1.83-3-3.9-3.12A22.55,22.55,0,0,1,44.07,47a4,4,0,0,1-3.5-4,50.52,50.52,0,0,1,0-5.22,3.77,3.77,0,0,1,3-3.53c1.8-.43,3.64-.73,5.44-1.17a2.16,2.16,0,0,0,1-.88c1.32-1.89.92-3.59-.57-5.23a17.14,17.14,0,0,1-1.78-2.66,3.91,3.91,0,0,1,.47-4.83c1.17-1.28,2.41-2.52,3.69-3.69a3.89,3.89,0,0,1,4.93-.37c1.44.9,2.85,1.86,4.24,2.84a1.87,1.87,0,0,0,1.81.19A3.72,3.72,0,0,0,66,14.63a19.62,19.62,0,0,1,.58-3A4.12,4.12,0,0,1,70.82,8.1c.63,0,1.27,0,1.9,0,2.15.2,4,0,5.58-1.91,1.09-1.31,2.81-1.23,4.35-.27,1,.65,2,1.36,3.06,2a2.3,2.3,0,0,0,3.36-1.4c.25-1.24.45-2.49.75-3.71A3.53,3.53,0,0,1,93.43,0c1.23,0,2.45,0,3.68,0a3.53,3.53,0,0,1,3.66,2.91c.32,1.3.54,2.63.84,3.94a2.46,2.46,0,0,0,3,1.23c1-.66,2-1.37,3.06-2a3.66,3.66,0,0,1,5.05.47c.81.76,1.59,1.55,2.36,2.35a3.68,3.68,0,0,1,.49,5,18.1,18.1,0,0,1-1.47,2.15,2.37,2.37,0,0,0-.25,3.19,1.78,1.78,0,0,0,.89.74,15.83,15.83,0,0,0,2.89.62,4.43,4.43,0,0,1,4,2.89Zm-51-17c-.36,1.8-.81,3.53-1,5.28-.27,2.18-1.08,3.76-3.48,4.06a1.83,1.83,0,0,0-.88.34c-2.62,2-4.89,1.24-7.18-.69-1.05-.89-2.48-2.14-3.55-2s-2,1.82-3,2.82a1.11,1.11,0,0,0-.14.25c1.26,1.89,2.52,3.81,3.82,5.7a2.55,2.55,0,0,1,.16,2.78A42.75,42.75,0,0,0,53.53,35a2.52,2.52,0,0,1-2.09,1.83c-2,.37-4,.78-6,1.21-.27.06-.7.37-.71.57-.07,1.45,0,2.9,0,4.33,2.26.45,4.34.92,6.44,1.26a2.89,2.89,0,0,1,2.57,2.25,18.19,18.19,0,0,0,1.48,3.6,2.87,2.87,0,0,1-.2,3.4c-1.28,1.79-2.46,3.65-3.53,5.25l3.25,3.55c2-1.3,3.88-2.55,5.76-3.85a2.48,2.48,0,0,1,2.77-.15A22.56,22.56,0,0,0,67,59.86a3,3,0,0,1,2.38,2.72c.34,2.09.81,4.17,1.24,6.29h4.75c.46-2.29,1-4.56,1.38-6.85a2.41,2.41,0,0,1,1.77-2,32.67,32.67,0,0,0,4.15-1.72,2.7,2.7,0,0,1,3.08.21c1.84,1.29,3.72,2.51,5.65,3.8.93-1,1.78-1.9,2.71-2.76a.89.89,0,0,0,.12-1.4c-1.13-1.61-2.18-3.29-3.32-4.91a2.57,2.57,0,0,1-.18-3,19.84,19.84,0,0,0,1.6-3.81A2.89,2.89,0,0,1,95,44.19c2.1-.34,4.18-.82,6.37-1.26,0-1.3,0-2.57,0-3.83,0-.76-.27-1-1-1.13-1.94-.33-3.87-.79-5.81-1.14a2.54,2.54,0,0,1-2.14-1.92,22.38,22.38,0,0,0-1.57-3.82,2.85,2.85,0,0,1,.17-3.4c1.29-1.78,2.47-3.64,3.57-5.29l-3.31-3.5c-1.89,1.26-3.81,2.51-5.7,3.81a2.46,2.46,0,0,1-2.76.17,41.5,41.5,0,0,0-4.26-1.76A2.52,2.52,0,0,1,76.73,19c-.35-2-.75-4-1.2-5.92-.09-.35-.51-.86-.8-.88C73.39,12.12,72.05,12.18,70.62,12.18ZM96.83,4.06c-.79,0-1.54,0-2.28,0s-.89.17-1,.83c-.23,1.48-.6,2.94-.88,4.42a2.34,2.34,0,0,1-1.73,1.89,30,30,0,0,0-3.26,1.37,2.5,2.5,0,0,1-2.78-.2c-1.39-1-2.81-1.89-4.18-2.81a2.18,2.18,0,0,0-1.15,2.91A7.09,7.09,0,0,1,80,14.54c.12,2,.81,3.36,3,3.86a2.16,2.16,0,0,0,2-.23c2.5-1.67,4.92-3.22,8.11-3.8,8.51-1.58,16.28,6,14.38,14.46a13,13,0,0,1-3.42,6.26,5,5,0,0,1,1.43,4.08,1.81,1.81,0,0,0,.44,1.32c1.28,1,2.64,1.82,3.89,2.66l2.29-2.22-2.92-4.35a2.35,2.35,0,0,1-.15-2.46c.53-1.15,1-2.32,1.46-3.5A2.32,2.32,0,0,1,112.34,29c1.73-.33,3.46-.71,5.19-1.06V24.8c-1.78-.36-3.48-.71-5.18-1a2.3,2.3,0,0,1-1.85-1.63c-.43-1.15-.88-2.28-1.41-3.38a2.44,2.44,0,0,1,.15-2.67c1-1.43,1.92-2.88,2.84-4.26l-2.17-2.31c-1.51,1-3,2-4.4,3a2.35,2.35,0,0,1-2.56.13,28.32,28.32,0,0,0-3.27-1.38,2.43,2.43,0,0,1-1.82-2.08C97.58,7.46,97.19,5.81,96.83,4.06Zm.11,14.49.5.58c1.7,1.88,1.84,3.57.45,5.68a24.11,24.11,0,0,1-1.79,2.65c-1.16,1.33-1.57,2.64-.47,4.19.29.4.34,1.06.71,1.3a4,4,0,0,0,4.36-.4,9.14,9.14,0,0,0,1.39-1.46C105.57,26.4,102.73,19.2,96.94,18.55Z"/>
    <path class="cls-1" d="M47.52,121.65a16.1,16.1,0,0,1-1.44-2.18c-1.37-3-2.63-6-4-9a8.53,8.53,0,0,0-1.31-1.83c-2-2.49-2.31-2.49-5.35-1.55C30.7,108.59,26,110,21.21,111.27a7.47,7.47,0,0,1-8.91-4.68,12.58,12.58,0,0,1-.53-7.9c.53-2.11.28-2.67-1.48-3.72-3-1.79-3.28-2.53-2.22-6L6.54,87.76c-1.29-1.1-1.59-2-1-3.56.4-1,1-2,1.49-3,1-1.95.73-2.7-1.14-3.75-1-.55-2-1.08-3-1.7C-.31,73.72-.87,71.15,1.29,68,2.47,66.22,3.9,64.65,5,62.87c2.26-3.66,4.35-7.42,6.54-11.13a1.56,1.56,0,0,0-.34-2.2c-.5-.44-1-.91-1.49-1.36-2.35-2.1-3.12-4.65-1.79-7.48,2-4.33,3-9,4.5-13.46,2.6-8,7-14.67,14.32-19.14A40.54,40.54,0,0,1,41.15,2.92C47.41,1.84,53.71.93,60,.15a44,44,0,0,1,7.35,0c1.64.08,2.5,1,2.41,2.18s-1.09,2-2.77,1.9C56.45,3.74,46.2,5.6,36.13,8.44,25.32,11.48,19.07,19.15,16,29.58c-1.2,4.05-2.18,8.15-4,12-1,2-.72,2.38.94,4a15.31,15.31,0,0,1,2.61,3.29,4.59,4.59,0,0,1-.16,4.44,86.22,86.22,0,0,1-9.93,16,14.46,14.46,0,0,0-1,1.36,6.72,6.72,0,0,0-.4.89c.81.55,1.61,1.11,2.45,1.62.6.38,1.26.66,1.87,1,3.29,1.94,4.22,4.92,2.61,8.42-.37.79-.79,1.55-1.25,2.43.59.47,1.19,1,1.8,1.43,1.75,1.37,1.86,2,.67,3.87-.12.2-.22.41-.38.7.29.18.53.35.79.49A6.27,6.27,0,0,1,16,98.57c-.41,2.07-.79,4.09,0,6.17a3.64,3.64,0,0,0,4.57,2.48c8.91-2.06,17.45-5.29,26.05-8.31a44.23,44.23,0,0,0,6.91-3.31,5.18,5.18,0,0,0,2.7-4.35,1.93,1.93,0,0,1,2.21-2,2,2,0,0,1,1.86,2.31,8.48,8.48,0,0,1-2.44,5.64,22.08,22.08,0,0,1-8.7,5.15c-2.1.77-4.23,1.47-6.47,2.25.47.57.87,1,1.25,1.54a31.7,31.7,0,0,1,5.55,10.53c.17.59.4.91,1.12.9q22.28-.14,44.53-.22a2,2,0,0,0,.31-.06,1.3,1.3,0,0,0-.09-.4c-3.25-5.15-4.72-10.92-5.76-16.81A47.63,47.63,0,0,1,88.79,88a38.74,38.74,0,0,1,8.09-20.55c1.4-1.87,2.78-3.76,4.1-5.68a25.88,25.88,0,0,0,3.84-8.61c.05-.19.12-.37.19-.56a2,2,0,0,1,2.51-1.4,2.06,2.06,0,0,1,1.39,2.53,29.66,29.66,0,0,1-4.3,10c-1.53,2.26-3.14,4.46-4.78,6.64a33.56,33.56,0,0,0-6.9,23.93,53.07,53.07,0,0,0,4.47,18c.5,1.07,1.18,2,1.77,3.08.49.86,1,1.69,1.45,2.58,1,2.12.62,3-1.55,3.8Z"/>
    <path class="cls-1" d="M22.66,35.87,18.74,35c.18-.83.34-1.62.53-2.41a31.65,31.65,0,0,1,6.57-13.23c3.31-4,7.74-6,12.54-7.44,1.4-.42,2.83-.72,4.25-1a2,2,0,0,1,2.63,1.52,2.07,2.07,0,0,1-1.7,2.44c-2.41.71-4.89,1.26-7.25,2.13C29.44,19.51,25.94,25,23.78,31.63,23.34,33,23.05,34.37,22.66,35.87Z"/>
    <path class="cls-1" d="M18.2,44.64a2.12,2.12,0,0,1-2-2.09,2,2,0,0,1,2.09-2,2,2,0,0,1,2,2.06A2.07,2.07,0,0,1,18.2,44.64Z"/>
    <path class="cls-1" d="M73,26.38a14.2,14.2,0,0,1,0,28.4,14.2,14.2,0,1,1,0-28.4ZM62.91,40.6A10,10,0,0,0,73,50.64a10.11,10.11,0,1,0-10.12-10Z"/>
    <path class="cls-1" d="M75,40.53a2,2,0,0,1-2,2,2,2,0,0,1-2-2,2,2,0,0,1,2-2A2.1,2.1,0,0,1,75,40.53Z"/>
  </g>
</svg>
