<svg id="Layer_1" data-name="Layer 1" xmlns="http://www.w3.org/2000/svg" viewBox="0 0 121.64 121.65">
  <defs>
    <style>
      .cls-1 {
        fill: #231f20;
      }
    </style>
  </defs>
  <g>
    <path class="cls-1" d="M121.64,113.57c-.22.54-.4,1.1-.66,1.62a7.49,7.49,0,0,1-6.55,4.58c-.51,0-1,0-1.54,0q-52.08,0-104.17,0c-3,0-5.46-.76-7.26-3.23A7.31,7.31,0,0,1,0,112.18c0-1.11,0-2.22,0-3.33a3.5,3.5,0,0,1,3.53-3.68c1.22,0,2.44,0,3.83,0v-1.47c0-20.07.07-40.14,0-60.22,0-4.21,2.85-8.56,8.47-8.47,4.08.06,8.16,0,12.24,0h1.23c.1-.15.19-.21.18-.27-.3-2.83,1.16-4.42,3.66-5.37A22.6,22.6,0,0,0,35.72,28l-.14-.35a8.54,8.54,0,0,0-.86-.07c-4,0-8,0-12,0a1.3,1.3,0,0,0-1.37.79A5.37,5.37,0,0,1,14.79,31a5.49,5.49,0,1,1,6.59-7.8c.21.34.63.79,1,.79C27,24,31.6,24,36.46,24c-1-2.84-2.53-5.71,1.13-8l-3.37-3.21a6.59,6.59,0,0,1-.91-.92,6.44,6.44,0,0,0-6.66-2.79,1.9,1.9,0,0,0-1.73,1,5.3,5.3,0,0,1-6.1,2.52A5.42,5.42,0,0,1,14.75,7.4a5.49,5.49,0,0,1,3.93-5.33A5.37,5.37,0,0,1,25,4.65a1.44,1.44,0,0,0,1.46.87c6.39,0,5.09-.47,9.58,4,1.28,1.28,2.52,2.61,3.83,4,.45-.42.76-.7,1.06-1a3.68,3.68,0,0,1,4.12-1,11.11,11.11,0,0,1,1.34.46,4.66,4.66,0,0,0,5-.14,3.84,3.84,0,0,0,1.22-1.15c.59-1,1.05-2,1.57-3.06a3.55,3.55,0,0,1,3.34-2.07c2.22,0,4.43,0,6.65,0a3.59,3.59,0,0,1,3.35,2.06A11,11,0,0,1,68.17,9a4.81,4.81,0,0,0,3.74,3.51,3.59,3.59,0,0,0,1.56.07,25.61,25.61,0,0,0,2.92-1,3.78,3.78,0,0,1,4.51,1.06c.23.25.51.47.84.78,2.08-2.08,4.15-4.09,6.14-6.17A5,5,0,0,1,92.1,5.5c.44,0,.88,0,1.31,0,1.6.12,2.88,0,3.91-1.68,1.21-2,4-2.47,6.19-1.57a5.56,5.56,0,0,1,3.38,5.49,5.48,5.48,0,0,1-4.29,4.93,5.24,5.24,0,0,1-5.8-2.47c-.51-.92-1.11-1-2-1.14a6.42,6.42,0,0,0-6.28,2.6A55.68,55.68,0,0,1,84.13,16c3.48,2.21,2.19,5.05,1.06,7.93.53,0,.91.06,1.28.06,4.08,0,8.16,0,12.24,0a1.52,1.52,0,0,0,1.65-.92,5.36,5.36,0,0,1,6.51-2.5,5.48,5.48,0,1,1-6.62,7.77c-.19-.32-.56-.76-.86-.76-4.42-.05-8.85,0-13.67,0a8.56,8.56,0,0,0,1.12,1c.9.49,1.82,1,2.76,1.38A3.92,3.92,0,0,1,92.16,34c0,.27,0,.54,0,1h1.3c4.2,0,8.4,0,12.59,0s7.23,2.43,8,6.33a10,10,0,0,1,.14,2.12q0,30.06,0,60.11v1.58c1,0,2,0,2.89,0a4,4,0,0,1,4.48,2.72Zm-3.5-4.73c-.45,0-.65,0-.84,0q-20.07,0-40.14,0a2.5,2.5,0,0,0-1.6.75,8.86,8.86,0,0,1-7,2.88q-7.72-.12-15.44,0a9,9,0,0,1-7.1-2.92,2.6,2.6,0,0,0-1.73-.71c-5.62,0-11.24,0-16.86,0-.51,0-1.16.06-1.48-.22a3,3,0,0,1-1.13-1.73,1.51,1.51,0,0,1,1.43-1.61,9.43,9.43,0,0,1,1.3-.06c5.43,0,10.85.09,16.27,0,2.11,0,3.76.39,5.07,2.1a4.48,4.48,0,0,0,3.88,1.64c5,0,10-.12,15,0a6.45,6.45,0,0,0,5.82-2.47,3.42,3.42,0,0,1,3-1.27q16.28,0,32.54,0h1.58v-1.35q0-30.11,0-60.21c0-2.59-1.43-5-5-5q-45,.11-89.91,0c-3.51,0-5,2.36-4.95,5q.08,30,0,60.09v1.46h1.35c2,0,4,0,5.94,0A1.66,1.66,0,0,1,20,106.86a1.77,1.77,0,0,1-1.71,1.9,7.61,7.61,0,0,1-1.07,0H3.56c0,.83,0,1.5,0,2.16-.29,3.08,1.51,5.31,5.21,5.3q52.08-.1,104.16,0H114a3.92,3.92,0,0,0,3.9-3.18A31.31,31.31,0,0,0,118.14,108.84Zm-29.7-73.9a1.46,1.46,0,0,0-1-2.09,12.65,12.65,0,0,1-2.75-1.38,5.88,5.88,0,0,1-1.78-1.8c-1.58-2.76-2.25-5.63-.55-8.62a1,1,0,0,0,.17-.56,2.92,2.92,0,0,0-.38-1.43C81.19,17.94,80,17,79,15.83a1.81,1.81,0,0,0-2.47-.54,7.4,7.4,0,0,1-7.65-.14l-.1-.05A3.85,3.85,0,0,1,66,12.49c-.82-2.86-2.6-3.59-5.5-3.5-2.34.08-3.55.68-4.49,2.84a7.29,7.29,0,0,1-9.42,3.89c-2.14-.85-3.4-.43-5.09,1.13-2.16,2-2.91,3.78-1.51,6.47a4.39,4.39,0,0,1,.18,2.85c-.81,3-2.3,5.61-5.62,6.56-.15,0-.28.15-.43.2-1,.32-1.17,1-.87,2a1.65,1.65,0,0,0,.44.1c4.55,0,9.1,0,13.66,0,.68,0,.75-.38,1-.9A44.77,44.77,0,0,1,50.66,29a1.81,1.81,0,0,1,2.73-.67c.91.7.89,1.63.14,2.83s-1.29,2.39-2,3.73H69.83c0-.22,0-.34-.06-.45-1.25-4.35-4.74-6.84-9.64-6.87-1.27,0-2.08-.7-2.08-1.76A1.85,1.85,0,0,1,60,24a12.81,12.81,0,0,1,13.31,9.86c.2.88.48,1.16,1.37,1.15,4.24,0,8.47,0,12.71,0C87.74,35,88.09,35,88.44,34.94ZM20.29,5.46a1.9,1.9,0,0,0-1.95,1.81,1.94,1.94,0,0,0,1.84,1.94A1.91,1.91,0,0,0,22.1,7.38,1.85,1.85,0,0,0,20.29,5.46Zm83,1.87a1.91,1.91,0,0,0-1.89-1.87,1.85,1.85,0,0,0-1.87,1.86,1.9,1.9,0,0,0,1.86,1.89A1.94,1.94,0,0,0,103.3,7.33ZM18.4,25.79a1.81,1.81,0,0,0-1.88-1.86,1.85,1.85,0,1,0,1.88,1.86Zm88.55,0a1.8,1.8,0,0,0-1.87-1.85,1.77,1.77,0,0,0-1.83,1.77,1.85,1.85,0,1,0,3.7.08Z"/>
    <path class="cls-1" d="M60.79,42.4H103.9c2.63,0,3,.38,3,3.05V98.54c0,2.41-.47,2.87-2.94,2.87H17.62c-2.38,0-2.88-.49-2.88-2.81V45.27c0-2.44.44-2.87,2.93-2.87Zm42.47,3.72H18.4V97.66h84.86Z"/>
    <path class="cls-1" d="M64.58,60.8c-1.34,0-2.49,0-3.63,0a5.5,5.5,0,0,1-5.59-5.18,5.3,5.3,0,0,1,5.29-5.77q9.39-.15,18.76,0a5.41,5.41,0,0,1,5.37,5.51,5.58,5.58,0,0,1-5.62,5.44c-1.14,0-2.29,0-3.62,0,0,.87,0,1.68,0,2.49,0,1.3-.68,2.05-1.78,2.06s-1.77-.71-1.79-2,0-2.69,0-4,.62-2.05,2.12-2.08,3.26.1,4.86-.05a2.94,2.94,0,0,0,2-1,1.78,1.78,0,0,0-1.72-2.67q-9.15,0-18.29,0a1.87,1.87,0,0,0-2,1.81,1.91,1.91,0,0,0,1.88,1.91c1.5.07,3,0,4.51,0,2.42,0,2.86.43,2.86,2.8V87.67a5.12,5.12,0,0,0,0,1.18,1.73,1.73,0,0,0,1.63,1.48,1.67,1.67,0,0,0,1.93-1.2A5.15,5.15,0,0,0,72,87.61q0-7.53,0-15.08a3.39,3.39,0,0,1,.17-1.39,1.64,1.64,0,0,1,2-1,1.77,1.77,0,0,1,1.45,1.9v7.84c0,2.77,0,5.54,0,8.31a5.48,5.48,0,1,1-11,0c0-8.63,0-17.26,0-25.89Z"/>
    <path class="cls-1" d="M40.6,71.88c0-5.58,0-11.16,0-16.74A5.42,5.42,0,0,1,50.39,52a6.08,6.08,0,0,1,1.1,3.16c.08,11.16.07,22.32,0,33.48A5.48,5.48,0,0,1,46.1,94a5.4,5.4,0,0,1-5.47-5.27c-.06-5.62,0-11.24,0-16.86Zm3.58,0c0,5.45,0,10.91,0,16.37A1.84,1.84,0,0,0,46,90.34a1.88,1.88,0,0,0,2-2c0-.24,0-.48,0-.71q0-15.72,0-31.45a5.12,5.12,0,0,0-.18-1.51,1.69,1.69,0,0,0-1.93-1.22,1.79,1.79,0,0,0-1.64,1.47,4.75,4.75,0,0,0,0,1.07Z"/>
  </g>
</svg>
