<svg id="Layer_1" data-name="Layer 1" xmlns="http://www.w3.org/2000/svg" viewBox="0 0 121.64 121.65">
  <defs>
    <style>
      .cls-1 {
        fill: #231f20;
      }
    </style>
  </defs>
  <g>
    <path class="cls-1" d="M66.42,56c4,5.34,7.8,10.52,11.65,15.68A4.54,4.54,0,0,1,79.13,75c-.23,2.22-4.46,5.91-6.69,5.78a4.25,4.25,0,0,1-3.21-2q-5.66-7.61-11.36-15.21c-.26-.35-.53-.68-.85-1.1a13.94,13.94,0,0,1-7.1,1.92A12.83,12.83,0,0,1,38,55.33a12.65,12.65,0,0,1,5-14.21c3.06-2,6.27-3.69,9.41-5.51.24-.13.56-.32.77-.25,1.36.39,2.12-.58,3-1.26A71.15,71.15,0,0,0,73.33,15.25a3,3,0,0,0,.36-3,6.63,6.63,0,0,1,3.37-8.49,6.77,6.77,0,0,1,8.82,2.59c2.14,3.55,4.17,7.17,6.25,10.76l.59,1c5.14-1.25,8.41-.18,10.31,3.33s1,6.84-2.55,10.17c2.11,3.64,4.19,7.31,6.34,11a7.29,7.29,0,0,1,1.08,5.77,6.54,6.54,0,0,1-5.37,5.07,6.42,6.42,0,0,1-6.69-2.6,2.17,2.17,0,0,0-2-1c-8.46,0-16.5,2-24.35,5C68.53,55.15,67.55,55.56,66.42,56Zm26.79-9.63c-5.7-9.87-11.3-19.58-17-29.42C70.94,25.66,64,32.43,56.12,38.41l8.5,14.71C73.78,49.24,83.13,46.67,93.21,46.39ZM79.93,6.4a6,6,0,0,0-1,.21c-2.26.77-3,3.14-1.69,5.44q6.3,11,12.63,21.87Q94,41,98,48c1,1.66,2.39,2.4,3.89,2.07a3.49,3.49,0,0,0,2.24-5.37c-2.66-4.67-5.37-9.31-8.06-14q-6.36-11-12.73-22.08A3.88,3.88,0,0,0,79.93,6.4ZM52.75,39.29c-2.5,1.44-4.88,2.76-7.2,4.17a9.4,9.4,0,1,0,9.52,16.21c2.11-1.18,4.19-2.4,6.27-3.61a8.21,8.21,0,0,0,.77-.56ZM60,60.73c.31.45.53.77.76,1.08L70.61,75c2,2.67,2,2.63,4.45.45.78-.69.79-1.15.19-1.95-3.59-4.76-7.14-9.56-10.7-14.35-.18-.24-.39-.46-.6-.71ZM98.7,28.47a4.24,4.24,0,0,0,1.14-5.84,4,4,0,0,0-5.3-1.37Z"/>
    <path class="cls-1" d="M80.62,92h7.52c3,0,4.5,1.52,4.5,4.55q0,9.27,0,18.53c0,2.89-1.5,4.4-4.37,4.4H62.73c-2.83,0-4.3-1.47-4.31-4.31,0-3.41,0-6.81,0-10.22v-1.27c-1.75.29-3.37.58-5,.83a64.06,64.06,0,0,1-13.49.49,3.69,3.69,0,0,0-2.16.63c-6.36,4.37-12.67,8.82-19,13.19a3.09,3.09,0,0,1-1.94.55c-1-.1-1.35-1.13-1.06-2.39,1-4.16,1.94-8.31,2.9-12.46.3-1.31.54-2.64.93-3.92.22-.74,0-1-.63-1.36a35.19,35.19,0,0,1-10.56-8c-4-4.5-6.42-9.65-6.24-15.81A22.21,22.21,0,0,1,8.42,60.91c5.51-6,12.51-9.52,20.27-11.69,1.06-.3,2.14-.53,3.22-.76a1.71,1.71,0,0,1,2.26,1.12c.25,1-.35,1.81-1.52,2.16-2.72.8-5.5,1.45-8.15,2.47-5.85,2.24-11,5.5-14.92,10.55-6.07,7.95-5.33,17.52,1.87,24.95a34.58,34.58,0,0,0,10,7.08c2,.95,2.13,1.28,1.64,3.4-1.05,4.5-2.08,9-3.17,13.74l1.18-.8c5.19-3.62,10.4-7.22,15.56-10.88a4.07,4.07,0,0,1,2.89-.68,57.46,57.46,0,0,0,18.84-1.41c0-1.32,0-2.62,0-3.91a3.87,3.87,0,0,1,4.23-4.2c3.88,0,7.76,0,11.64,0a3.15,3.15,0,0,0,1.87-.72,21.18,21.18,0,0,0,7.26-11.67c1.24-5.91-.55-11-4.29-15.54a48.8,48.8,0,0,0-4.68-4.52c-1-.9-1.17-2-.35-2.76a1.56,1.56,0,0,1,2.17-.1c6.59,5.12,11.06,11.43,10.88,20.16-.1,5.19-2.22,9.65-5.47,13.61l-1.06,1.28A2.06,2.06,0,0,0,80.62,92ZM75.55,116.2c4.15,0,8.31,0,12.47,0,.88,0,1.3-.21,1.29-1.19q0-9.19,0-18.41c0-.88-.3-1.16-1.18-1.16q-12.59,0-25.18,0c-.93,0-1.22.28-1.21,1.23,0,6,0,12.11,0,18.17,0,1.16.43,1.38,1.46,1.37C67.31,116.17,71.43,116.2,75.55,116.2Z"/>
    <path class="cls-1" d="M11,5.5a16.12,16.12,0,0,1,2,1c1.69,1.21,3.38.56,3.75-1.51S18,2.17,20.21,2.17c1,0,2,0,3,0A2.72,2.72,0,0,1,25.9,4.64c.38,2.58,2,3.24,4.05,1.71a2.79,2.79,0,0,1,3.78.2c.84.78,1.65,1.6,2.43,2.44a2.76,2.76,0,0,1,.21,3.86c-1.44,2-.81,3.56,1.57,4a2.82,2.82,0,0,1,2.67,3.05q0,1.54,0,3.09a2.79,2.79,0,0,1-2.61,3c-2.38.34-3.09,2-1.67,3.94a2.8,2.8,0,0,1-.21,4c-.73.78-1.49,1.53-2.26,2.26a2.8,2.8,0,0,1-4.05.21C28,34.94,26.24,35.67,25.92,38A2.79,2.79,0,0,1,23,40.63c-1.11,0-2.22,0-3.32,0a2.79,2.79,0,0,1-2.85-2.49c-.46-2.61-1.93-3.23-4-1.72A2.75,2.75,0,0,1,9,36.22q-1.26-1.17-2.43-2.43a2.78,2.78,0,0,1-.21-3.87c1.48-2,.79-3.63-1.69-4a2.73,2.73,0,0,1-2.53-2.79c0-1.15,0-2.29,0-3.44a2.73,2.73,0,0,1,2.46-2.85l.59-.1a2.16,2.16,0,0,0,1.43-3.57c-1.35-1.86-1.28-3,.31-4.58a25.52,25.52,0,0,1,2-2A13.68,13.68,0,0,1,11,5.5Zm26.3,17a4.71,4.71,0,0,1,0-.76c.16-1.09-.12-1.67-1.36-2a4.81,4.81,0,0,1-3.35-3.27,5.63,5.63,0,0,1,.88-5.5l-1.7-1.7a5.75,5.75,0,0,1-9.24-3.77H20.15a5.65,5.65,0,0,1-9.09,3.79L9.29,11c2.52,4.15,1.21,7.31-3.79,9.28v2.29a5.66,5.66,0,0,1,4.59,3.5,5.58,5.58,0,0,1-.71,5.56L11,33.47c4.12-2.54,7.17-1.27,9.31,3.78h2.21c1.08-5.08,6.07-6.19,9.17-3.87l1.71-1.72C31,28.56,32.21,23.57,37.27,22.51Z"/>
    <path class="cls-1" d="M119.51,65.7a27.17,27.17,0,0,1-3.06,10.51,33.52,33.52,0,0,1-9.59,12.34c-4.49,3.44-9,3.82-13.22,1.25l-.3-.19a4.21,4.21,0,0,1-1.46-5.71c.75-1.39,1.54-2.75,2.36-4.1a4.24,4.24,0,0,1,5.94-1.61c.38.2.76.42,1.13.65a1.09,1.09,0,0,0,1.56-.31,33.24,33.24,0,0,0,5.84-10.1,1.09,1.09,0,0,0-.52-1.5c-.45-.25-.9-.5-1.33-.79a4.19,4.19,0,0,1-1.49-5.6c.76-1.44,1.58-2.83,2.42-4.22a4.26,4.26,0,0,1,6-1.58C117.78,56.92,119.54,60.38,119.51,65.7Zm-3.33-.57c0-3.59-1.34-6-3.91-7.37-.75-.4-1.27-.3-1.68.43-.55,1-1.11,1.92-1.66,2.88-1,1.74-1,1.81.73,2.83,2.42,1.43,3.08,3.28,2.11,5.93a39.42,39.42,0,0,1-5.36,9.72c-2.44,3.33-4.88,3.69-7.67,1.7-.06,0-.14-.14-.19-.12-.48.12-1.17.12-1.39.43-.83,1.2-1.51,2.5-2.24,3.78a1,1,0,0,0,.47,1.59l.41.23c3.28,1.8,6.22.84,8.93-1.22a30.87,30.87,0,0,0,9.11-12.11A24.35,24.35,0,0,0,116.18,65.13Z"/>
    <path class="cls-1" d="M44.67,80.6H63.9c.47,0,1.07-.08,1.37.17.5.41,1.11,1.07,1.09,1.6s-.71,1.11-1.22,1.5c-.3.22-.84.13-1.27.14H25.41A6.34,6.34,0,0,1,24.34,84a1.58,1.58,0,0,1-1.46-1.6,1.63,1.63,0,0,1,1.49-1.71,6.35,6.35,0,0,1,1.07,0Z"/>
    <path class="cls-1" d="M39.08,71.69c-4.55,0-9.09,0-13.64,0-.47,0-1.07.07-1.38-.17a2.74,2.74,0,0,1-1.12-1.58c0-.49.61-1.08,1.08-1.49.24-.21.75-.18,1.14-.18H53.27a2.09,2.09,0,0,1,1.25.21c.45.4,1,1,1,1.54a2.43,2.43,0,0,1-1.06,1.48c-.32.25-.91.18-1.38.18C48.41,71.7,43.74,71.69,39.08,71.69Z"/>
    <path class="cls-1" d="M113.94,31.78c-1.22,0-2.45,0-3.67,0s-1.89-.68-1.92-1.66.71-1.73,2-1.75c2.4,0,4.81,0,7.21,0,1.26,0,2,.69,2,1.72s-.72,1.66-2,1.69S115.12,31.78,113.94,31.78Z"/>
    <path class="cls-1" d="M104.52,3.57A12.74,12.74,0,0,1,103.93,5q-1.71,3-3.47,6c-.69,1.16-1.61,1.51-2.52,1s-1.06-1.51-.38-2.69c1.19-2.08,2.4-4.16,3.6-6.24a1.53,1.53,0,0,1,2-.86C103.69,2.49,104.08,3.13,104.52,3.57Z"/>
    <path class="cls-1" d="M116.71,14.52c-.16.22-.37.8-.78,1.05q-3.18,2-6.44,3.73a1.59,1.59,0,0,1-2.27-.58,1.55,1.55,0,0,1,.56-2.26c2.16-1.3,4.33-2.58,6.55-3.76C115.49,12.08,116.75,13,116.71,14.52Z"/>
    <path class="cls-1" d="M69.12,105.82c0-1.74,0-3.48,0-5.21s1.22-2.44,2.7-1.6q4.55,2.55,9,5.2c1.48.87,1.51,2.29,0,3.16q-4.53,2.68-9.12,5.26c-1.41.79-2.62,0-2.65-1.59S69.12,107.56,69.12,105.82Zm7.78,0-4.37-2.5v5Z"/>
    <path class="cls-1" d="M21.23,31.51a10.14,10.14,0,1,1,10.26-10A10.2,10.2,0,0,1,21.23,31.51Zm6.85-10a6.72,6.72,0,1,0-6.86,6.63A6.65,6.65,0,0,0,28.08,21.47Z"/>
  </g>
</svg>
