<svg id="Layer_1" data-name="Layer 1" xmlns="http://www.w3.org/2000/svg" viewBox="0 0 121.64 121.65">
  <defs>
    <style>
      .cls-1 {
        fill: #231f20;
      }
    </style>
  </defs>
  <g>
    <path class="cls-1" d="M63.81,58.47h48a7.74,7.74,0,0,1,7.95,6.27,9.15,9.15,0,0,1,.12,1.89c0,11.76-.07,23.52,0,35.29,0,4.13-2.89,8.41-8.16,8.16-.35,0-.7,0-1.17,0,0,.49-.11.91-.12,1.33q-.08,3.15-.13,6.3a1.92,1.92,0,0,1-3.44,1.36c-2.62-2.7-5.28-5.36-7.88-8.08a2.68,2.68,0,0,0-2.16-.92q-20.49,0-41,0a12.05,12.05,0,0,1-3.39-.39c-3.3-1-5.27-3.86-5.27-7.61q0-15.25,0-30.53V70c-1.8.37-3.5.8-5.23,1.08a32.18,32.18,0,0,1-17.59-1.8c-1.86-.75-3.47-.38-5.18-.09C15.1,69.93,11,70.72,7,71.47c-2.09.39-3.15-.71-2.74-2.87C5,64.29,5.88,60,6.66,55.68A2.65,2.65,0,0,0,6.37,54a34.82,34.82,0,1,1,64.55-23,34.29,34.29,0,0,1-6.39,26.36C64.33,57.7,64.14,58,63.81,58.47ZM8.19,67.28c4.22-.78,8.27-1.49,12.29-2.3a6.73,6.73,0,0,1,4.24.38,27.17,27.17,0,0,0,9.5,2.37c9.34.56,17.49-2.29,24.14-8.94C66.25,50.9,69.22,41.29,67,30.43a30.93,30.93,0,0,0-37.4-24C9,10.94-1.13,35,10,52.81a3.49,3.49,0,0,1,.47,2.7C9.68,59.37,9,63.25,8.19,67.28ZM106.57,113c0-1.31,0-2.83,0-4.36a2,2,0,0,1,2.16-2.27c.87,0,1.74,0,2.61,0,3,0,4.47-1.43,4.47-4.41q0-17.64,0-35.29c0-2.78-1.62-4.46-4.41-4.46q-25.12,0-50.25,0a3.17,3.17,0,0,0-1.57.62C57,64.51,54.51,66.3,51.9,67.93a1.66,1.66,0,0,0-1,1.63q0,16.27,0,32.55a5.62,5.62,0,0,0,.1,1.3c.45,2,1.86,2.94,4.27,2.94q21.2,0,42.4,0a4.17,4.17,0,0,1,3.24,1.36C102.76,109.55,104.72,111.26,106.57,113Z"/>
    <path class="cls-1" d="M111.67,19.39a16.93,16.93,0,0,1-5,11.88,10.5,10.5,0,0,0-3.37,7.11,2.27,2.27,0,0,0,.56,1.52,5.17,5.17,0,0,1-2,8.52,1.53,1.53,0,0,0-.85.86A7.43,7.43,0,0,1,94,54.63a7.52,7.52,0,0,1-7.13-5.45,1.68,1.68,0,0,0-.84-.94,5.1,5.1,0,0,1-1.33-8.34,1.94,1.94,0,0,0,.69-1.85,10.11,10.11,0,0,0-3.1-6.48A16.73,16.73,0,0,1,77.09,19a17.24,17.24,0,0,1,34.07-3.36A36,36,0,0,1,111.67,19.39ZM96.1,38.64h3.26c.07-.77.1-1.45.19-2.11.5-3.36,2.35-5.94,4.6-8.37a13.23,13.23,0,0,0,1.64-15.84A13.43,13.43,0,0,0,91,6.17a12.72,12.72,0,0,0-9.64,9.35,12.72,12.72,0,0,0,3.39,13.1,13.7,13.7,0,0,1,3.72,5.83c.39,1.36.55,2.78.82,4.22h3.08a54.55,54.55,0,0,1,0-5.87c.32-2.87-.37-5.19-2.82-6.85a1.36,1.36,0,0,1-.17-.17,1.8,1.8,0,0,1-.12-2.72,1.82,1.82,0,0,1,2.73.13c.73.72,1.39,1.5,2.22,2.41.86-.92,1.53-1.69,2.26-2.4a1.84,1.84,0,0,1,2.74-.15,1.81,1.81,0,0,1-.12,2.73c-.82.87-1.7,1.67-2.5,2.54a1.69,1.69,0,0,0-.49,1C96.08,32.41,96.1,35.49,96.1,38.64Zm-1.57,4h-1c-2,.06-4,.08-6,.24-.25,0-.62.79-.62,1.21a1.19,1.19,0,0,0,.84.83C90,45,92.26,45,94.51,45c1.85,0,3.7,0,5.55,0,.72,0,1.46.21,1.54-.91s-.37-1.43-1.37-1.42C98.33,42.62,96.43,42.6,94.53,42.6Zm-3.88,5.94a3.44,3.44,0,0,0,3.48,2.33,3.31,3.31,0,0,0,3.08-2.33Z"/>
    <path class="cls-1" d="M38.15,89.81a12.86,12.86,0,0,1-7.21,11.44,1.84,1.84,0,0,0-.88,1.06,5.44,5.44,0,0,1-5.61,4.13,5,5,0,0,1-4.34-4.76c-.36-4.91,2.29-8.37,5.95-9.42a2.86,2.86,0,0,0,2.08-2.86,3,3,0,0,0-2.06-2.77,3.34,3.34,0,0,0-3.49,1.2c-.21.28-.36.61-.56.91a4.88,4.88,0,0,1-6.66,1.59,4.7,4.7,0,0,1-1.76-6.47,13.21,13.21,0,0,1,13.65-7,12.49,12.49,0,0,1,10.79,11C38.13,88.43,38.11,89,38.15,89.81ZM24.06,101.13c0-.11,0,.06,0,.2-.23.8.13,1.27.88,1.32s1.37-.3,1.31-1.25a11.45,11.45,0,0,1,0-1.31,1.83,1.83,0,0,1,1.36-1.84A9,9,0,0,0,33.89,87.8a8.76,8.76,0,0,0-7.16-7.43,9.42,9.42,0,0,0-9.59,4.26c-.81,1.37-.81,2.07.1,2.55,1.25.67,1.63-.37,2.13-1.17a6.71,6.71,0,0,1,7.47-3,6.86,6.86,0,0,1,5.1,6,6.62,6.62,0,0,1-4.37,6.87C24.94,96.9,24.13,98,24.06,101.13Z"/>
    <path class="cls-1" d="M24.93,119.84a5.72,5.72,0,1,1,5.76-5.71A5.77,5.77,0,0,1,24.93,119.84ZM27,114a2,2,0,1,0-2,2A2.14,2.14,0,0,0,27,114Z"/>
    <path class="cls-1" d="M44.84,21.55q-.63,7.4-1.27,14.78a7.06,7.06,0,0,1-6.85,6.46,6.91,6.91,0,0,1-7.15-6.22c-.49-5.08-1-10.16-1.36-15.24a8.63,8.63,0,0,1,11.51-8.69C43.06,13.87,45.14,17.5,44.84,21.55ZM41,20.31a4.6,4.6,0,1,0-9.18.3c.35,5.13.84,10.25,1.33,15.37a3.27,3.27,0,0,0,6.42.16c.21-1.12.27-2.27.37-3.42Z"/>
    <path class="cls-1" d="M43.36,54.56a6.82,6.82,0,1,1-6.81-6.78A6.87,6.87,0,0,1,43.36,54.56Zm-3.74,0a3.08,3.08,0,0,0-3.12-3,3.17,3.17,0,0,0-3.07,3,3.27,3.27,0,0,0,3.11,3.15A3.18,3.18,0,0,0,39.62,54.57Z"/>
    <path class="cls-1" d="M83.29,100.72H59.79c-1.72,0-2.51-.69-2.4-2A1.65,1.65,0,0,1,58.93,97a6,6,0,0,1,1,0h47a6,6,0,0,1,.95,0,1.84,1.84,0,0,1,.35,3.53,5.14,5.14,0,0,1-1.52.17Z"/>
    <path class="cls-1" d="M83.35,81.32H59.61c-1.48,0-2.18-.55-2.23-1.71a1.67,1.67,0,0,1,1.5-1.93,8.45,8.45,0,0,1,1.42-.07h46.18a7.08,7.08,0,0,1,1.53.11,1.82,1.82,0,0,1-.21,3.57,11.29,11.29,0,0,1-1.3,0Z"/>
    <path class="cls-1" d="M83.41,91.08H59.67c-1.61,0-2.33-.61-2.29-1.89A1.63,1.63,0,0,1,59,87.44a7.47,7.47,0,0,1,.95,0h46.88c.32,0,.63,0,1,0a1.82,1.82,0,0,1,0,3.63c-.4,0-.79,0-1.19,0Z"/>
    <path class="cls-1" d="M71.2,71.54c-4,0-7.92,0-11.88,0a1.82,1.82,0,0,1-1.86-2.46c.34-1,1.21-1.27,2.17-1.27,2.1,0,4.2,0,6.3,0,5.62,0,11.24,0,16.86,0,1.69,0,2.42.61,2.41,1.93s-.69,1.8-2,1.8Z"/>
  </g>
</svg>
