<?xml version="1.0" encoding="utf-8"?>
<!-- Generator: Adobe Illustrator 26.2.1, SVG Export Plug-In . SVG Version: 6.00 Build 0)  -->
<svg version="1.1" id="Layer_1" xmlns="http://www.w3.org/2000/svg" xmlns:xlink="http://www.w3.org/1999/xlink" x="0px" y="0px"
	 viewBox="0 0 81.9 123.7" style="enable-background:new 0 0 81.9 123.7;" xml:space="preserve">
<style type="text/css">
	.st0{fill-rule:evenodd;clip-rule:evenodd;fill:#935a2d;}
</style>
<g>
	<path class="st0" d="M15.5,104.5l-0.2,1.8c2.3,2.9,9.3,11.9,10.4,14.7l-21.9-0.2c0.7-1.6,1.5-2.4,2.7-3.9l7.6-10.9l-0.5-1.1
		c-1.5,0.1-5.9,6.7-7.1,8.3c-1.4,1.9-6.5,7.5-6.6,9.5c3.1,1.8,34.8,0.7,40.9,0.7c6.8,0,13.7,0,20.5,0c2.4,0,18.7,0.8,19.9-0.7
		c1-2.5,0.3-0.4-0.1-1.2c-1-2.4-12.2-15-13.6-18.7c2.7-0.1,5.4-0.1,8.1-0.1c7.1,0,5.3-0.2,5.9-1.5c-2-2.2-16.4-1-20.2-1.1L8.7,100
		c-6-0.1-7.4-1-8.7,1.5c3.1,2.2,33,1,39.4,0.9l-1.6,2.8c-0.7,0.9-1,1.2-1.6,2.1c-2.3,3.2-6.5,9.4-8.9,11.6
		C22.9,114.6,18.4,104,15.5,104.5 M54,118.9c-2.2-2.1-11-13.3-12.3-16.3l24-0.1C63.6,106.6,56.6,114.7,54,118.9z M29.3,120.8
		c1.3-3.1,8.9-13,11.1-15.2c1.7,1.2,11,13.9,11.5,15.2L29.3,120.8z M60.9,112.8c1.7-2.3,4.1-6.1,6.2-6.9c2.3,2.6,9.4,11.9,10.5,14.8
		l-22.1,0L60.9,112.8z"/>
	<path class="st0" d="M11,68.8l2.7,0.8c6.7,0.5,18.2-2.7,21.3,4.4c1,2.4-2.2,13.7-2.4,17.3c2.3,1.6,2.3,2,5.7,2.5
		c-1.4-2.6-1.7-2-4.1-3.5c0.3-4.2,1.8-9.3,2.5-13.7c1.1-6.5-3.4-5.1-5.7-9.3c3.6-0.9,2.9-0.5,4.8,2.2c1.4,2.1,2.4,2.3,2.5,5.9
		c0.3,5.4,1,10.6,1.7,15.9c2.4,0.8,4.6,2.6,6.4,1.5c-1.1-1.6-1.9-1.3-5.1-2.6c-0.3-3.6-1-18.2-3.2-20.5c-1.3-1.4-1.9-0.9-2.6-2.9
		c-0.9-2.4,0.6,0.8-0.2-1.2c-1.9-2.3-10.4-0.3-17.2-10.6l5.9-13.3l1.8,2.4c0.5,0.8,0.8,1.5,1.3,2.4l2.2,4c0.1,0.1,0.2,0.3,0.3,0.4
		c0.1,0.1,0.3,0.3,0.3,0.4l16.6,2c0.1,0,0.3-0.1,0.4-0.1c0.1,0,0.3-0.1,0.4-0.1l1-0.3c0.1,0,0.3-0.1,0.3-0.1c0,0,0.2,0,0.3-0.1
		c-3.7-3.8-3.1-0.9-7.9-1.3c-2.9-0.2-6.5-1.2-9.7-1.5c-2.3-3.1-4.2-8.6-5.4-11.7c-1.5-3.9-2.6-1-5.4-4.6l-0.5-0.8
		c-0.9,1.2,0.2,0.5-1.5,1c-6.9,2.1-5.7-5.5-7.4,13.3C10.7,51.5,9.2,65.8,11,68.8"/>
	<path class="st0" d="M53.4,45.7l16.2,0.3c2.3-4.3,3.5-14.7,3.8-20.1L56.6,26L53.4,45.7z"/>
	<path class="st0" d="M18.3,75l0.1,11.6C15.3,89.2,8,89.3,10,93.6c4.5,0.1-0.1-0.6,4.4-3.1c1.3-0.7,3.9-1.7,5.4-1.6
		c1.3,0,4.4,1.1,5.5,1.7c3.7,2.2-0.6,3.3,3.9,2.9c1.3-3.9-2.2-3.4-8.3-6.5l-0.1-12.3c7.8-0.2,8.3,1.1,9.4-2.3
		c-1.4-0.8-1.4-0.8-4.7-0.8C8.9,71.6,7.3,74,7.3,64.3L6.6,43.2c-0.2-3,0.2-1.9-1.6-2.6c-1,1.3-1.1,1.6-0.9,5.1l0.7,18
		C4.4,77.8,10.5,72.5,18.3,75"/>
	<path class="st0" d="M50.9,49.1c2.8,0.5,20.3,1,22.7,0.1c1.6-2.2,2.4-9.2,2.9-12.7c0.5-3.2,2.6-10.6,1.1-13.1
		c-2.2-1.5-19.3-1.2-23-0.5c-0.8,1.3-5,22.1-4,25.7C50.7,48.7,50.8,48.9,50.9,49.1 M55.1,24.4l20.1,0.3l-4,22.8l-19.5-0.3L55.1,24.4
		z"/>
	<path class="st0" d="M34.8,58.8c0.4,1-0.2,1.4,4.3,1.3c4.1,0,15.6-0.4,18.2,0.4c0.7,9-0.4,23.6,0.1,30.7c0.2,3.3-0.3,2.7,2.3,2.7
		c1.3-2.7,0.2-28.1,0.6-33.8c3.3,0,6.6,0,10,0c1.6,0,3.4,0.1,5,0c2.9-0.1,2.6,0.5,4-1.4c-1.6-2.1-5-1.2-10.2-1.2l-32.2,0.1
		C33.2,58.4,36.3,57.7,34.8,58.8"/>
	<path class="st0" d="M20.7,18.4c-0.1,0.1-2.4,0.3-3.5,3.6c-2.3,6.6,4.4,11.1,9.5,8.8C34.1,27.5,29.5,13.9,20.7,18.4"/>
	<path class="st0" d="M30.9,6.3c3-0.6,0.6,0.2,2.8-1.4c2.6-1.9,5.7-3.3,9.2-3.2c7.4,0.2,8.5,4.6,11.5,4.2C53,1.9,42.7-3.6,33.3,3.2
		C31.2,4.7,31.6,3.8,30.9,6.3"/>
	<path class="st0" d="M61.2,54.1c-2.6,0.5-3.3,0-5,1.2c1.8,1.3,9.6,1,11.8,0.2C66.1,52.9,67,54,65.7,51l-4,0L61.2,54.1z"/>
	<path class="st0" d="M34.5,9.4c2.9,0.5,5.6-4.9,12.2-1.7c2.8,1.4,1.3,1.7,4.4,2.2c-0.3-1.2,0.6-1.6-3.1-3.5
		C41.8,3.1,35.2,6.3,34.5,9.4"/>
	<path class="st0" d="M40.5,55.9l11.1,0c1.6-0.4,0.8-0.3,1.6-0.9c-1.9-0.9-4.2-0.7-6.6-0.6C44.6,54.4,40.8,54,40.5,55.9"/>
	<path class="st0" d="M12.8,113.7l-0.1,3.7l3.8,0.2C17.1,114.6,16.4,112.1,12.8,113.7"/>
	<path class="st0" d="M68,113.6c-3.9-0.9-4.8,2.3-2.4,3.7c1.4,0.8,2.4,0.3,2.9-0.7C69.5,115,68.5,114.2,68,113.6"/>
	<path class="st0" d="M39.1,113.9c-2.6,2.4,1.3,5,3,3C43.7,115.3,41.7,111.6,39.1,113.9"/>
	<path class="st0" d="M55.8,108.6c-0.6-4.1-4-3.8-4.6-1.2C50.6,110.7,54,110.2,55.8,108.6"/>
	<path class="st0" d="M38,13.3c2.4-0.9,3.5-2.8,7.2-1c0.3,0.2,0.6,0.5,1.1,0.7c0.4,0.1,0.9,0,1.1,0C47.5,9.7,38.2,8.4,38,13.3"/>
	<path class="st0" d="M25.5,106.4c-0.3,2.4-0.4,1.1,0.4,2.9C30.8,111.7,31.1,103.7,25.5,106.4"/>
	<path class="st0" d="M2.3,105.8c-1.3,2.5-1.2,3.6,2.3,3.8C5.8,107.3,6.2,105.7,2.3,105.8"/>
	<path class="st0" d="M79.1,109.2c1.1-4.2-3.3-4.6-2.5-0.2L79.1,109.2z"/>
	<path class="st0" d="M41.4,17.4c0.2,0.1,0.4,0.1,0.5,0.3c0.3,0.6,1.9-0.2,1.9-0.2C44.6,14.1,40.4,14,41.4,17.4"/>
	<polygon class="st0" points="14.2,105.9 15.3,106.3 15.5,104.5 13.8,104.8 	"/>
</g>
</svg>
