<?xml version="1.0" encoding="utf-8"?>
<!-- Generator: Adobe Illustrator 26.2.1, SVG Export Plug-In . SVG Version: 6.00 Build 0)  -->
<svg version="1.1" id="Layer_1" xmlns="http://www.w3.org/2000/svg" xmlns:xlink="http://www.w3.org/1999/xlink" x="0px" y="0px"
	 viewBox="0 0 206.2 181.2" style="enable-background:new 0 0 206.2 181.2;" xml:space="preserve">
<style type="text/css">
	.st0{fill-rule:evenodd;clip-rule:evenodd;fill:#935a2d;}
</style>
<g>
	<path class="st0" d="M72.2,55.4l0.2,0.2c0.2,1.2,0.7,0.9,1.8,2.1c4.3,4.3,0.8,8.9-0.2,10.9l5,0c-0.8-1.7-1.6-2.4-1.9-4.1
		c-0.3-2,0.3-4.1,0.4-5.6l-1.2,0.2l-0.1-7.9c0.1-0.7,0-0.8,0.2-1.5c0.4-1.2,0.1-0.6,0.7-1.4c1.7-1.9,0.5-2.1,3.1-3.3
		c2.8-1.3,1.8-1.4,3.3-3.6c1.7-2.7,1.7-1.3,4.4-1.7c4.6-0.7,1.6-7.7-2-4.9c-2.3,1.8-0.2,2.7-1.4,4.5c-1.4,2-3.1,1-4.5,2.4
		c-1.1,1.1-0.5,1.1-1,2.4c-0.6,1.5-0.8,1.6-1.9,2.4l0.2-16.1c0,0,1.6-1.1,1.9-2.3c0.4-1.5-0.3-2.6-0.7-3.5c-1.9-0.5-4.2-0.9-4.7,1.7
		c-0.6,3,1.2,3,2.3,4.3l0,15.6c-3.6-2-1.4-6.9-5.2-5.5c-1,0.5-1-1.2-1.2,1.7c-0.2,2.7,3.3,1.7,5.1,4c2.1,2.6,1.4,7.9,1.3,11.7
		C74.2,56.7,74.5,56,72.2,55.4"/>
	<path class="st0" d="M77.3,48.2c-0.6,0.8-0.3,0.2-0.7,1.4c-0.2,0.7-0.2,0.8-0.2,1.5l0.1,7.9l1.2-0.2c2.1-1.2,3-2.9,5.7-4.1
		c2.2,0.8,2.6,1.6,5.3,0.7c0.3-1.9-0.1-0.9-0.1-1.6l0.1-1.4c5.8-2,1.9,1.3,6.6,0.5c4.3-2.8,0.2-6.9-2.7-4.8
		c-1.9,1.4-0.2,2.6-2.7,3.3c-2.1,0.6-1.6-1.1-5.1-0.7c-2,2.1-0.8,2.4-3.3,4.1c-0.9,0.6-1.5,0.9-2.1,1.3l-1.6,1.5
		c-0.1,0.1-0.2,0.2-0.3,0.3c-0.1,0.1-0.2,0.2-0.3,0.3L77.3,48.2z"/>
	<path class="st0" d="M68.7,39.6c-0.2-1.8,0.3-3.9-1-4.9c-2.4-2-6.5,1.5-3.7,4.3C65.4,40.4,66.8,39.6,68.7,39.6"/>
	<path class="st0" d="M63.7,51.5l-0.1-0.2c-2.4-1.2-0.4-0.5-1.6-2.5c-0.7-1.2-1.5-1.6-3.3-1.2c-3.4,0.8-1.6,7,2.4,5
		C62.9,51.7,60.6,51.9,63.7,51.5"/>
	<path class="st0" d="M63.6,51.3l0.1,0.2l1.6,1.3l-0.6,2.5c3.5,1,3.1,0.2,5.8-0.5l2,0.9l-0.2-0.2c-0.8-1.4-0.9-0.8-1.8-2.2
		c-0.5-0.8-0.9-1.9-1.3-2.5C65.8,50.9,66.8,51.9,63.6,51.3"/>
	<path class="st0" d="M136.2,116c1.2,0.8,0.1,1,2.1,0.5c2.6,0.1,9.3-1.5,10.4-3.7c1-1.9,2.3-8.2,4-9.7c6.1,5.5,4.9,6.1,2.1,14.5
		c-3.4,0.5-6.9,0.9-10.3,1.4c-4.4,0.6-6.5-1.2-9.5,1.6l2.3,0.1c1.7,0.3-0.1-0.6,1.3,0.4l-0.8,0.4c-1,0.4-0.4,0.1-1.2,0.4l-0.8,0.2
		c-1.6,0.5-0.1-0.4-1.2,0.5c2.2,0.5,7.4,0.6,9.5,0c-1-1.5-1.9-0.7-4.5-0.9c1.6-1.3,4.5-1.2,7.9-1.6c1.5-0.2,3-0.3,4.5-0.5
		c5.2-0.6,3.8,0.2,6.9-9.4l1.7,1.5c1.4,1.3,3.4,2.8,4.4,5c-1.8,2-4.3,6-5.8,8.5c-2.6,4.2-5.3,3.3-9.5,6c-4.9,3.1-5.3,2.7-4.2,9.2
		c0.7,4.1,1.9,8.7,2.1,12.6c-1.6,0.4-4.7,1.3-5.8,2.4c2.2,1.4,4.1-0.3,7.7-0.8c-0.5-4.4-3.1-15.9-2.5-19.3c1.1-1,5-3.5,6.2-4
		c2.5-0.9,6.4,0.4,8.4,1.6l-6.4,6.4c0.8,3.5,6.2,10,7.7,14.3l-5.5,2c1.1,1.4,0.9,1.5,3.3,0.6c1.6-0.5,2.9-1.1,4.4-1.5
		c-1-4-5.9-10.6-7.8-14.9c0.8-1.2,5.2-5.4,6.6-6c1.4-0.6,9.8,0.2,12.6,0.1l0.2,17.6c-0.1,2.9-0.8,3.8,1.6,4.4
		c1-2.3,0.2-14.4,0.2-18.1c0-10.4-12.7-31-17.1-41.8c-1.9,0.4-6.8,2.2-8.6,3c-3,1.3-1.5,0.4-3.7,7.1c-0.8,2.4-1.2,6.1-3.7,7.1
		C143.6,114,138,115.6,136.2,116"/>
	<path class="st0" d="M29.7,156.4c1.8-2,0.5-16.7,1-20.7c17.9-1,10.9-0.5,21.1,5c-1.7,4.7-6.6,9.6-8.2,14.3l6.3,2.2l1.1-1.1l-4.9-2
		c1.6-4.3,6.8-9.5,7.9-13.3c-0.8-1.1-6.4-5.2-7.9-5.8c1.8-1.3,6.6-2.5,8.9-1.9c2.5,0.6,5.3,2.6,7.5,3.4l-1,18.9
		c2.9,0.7,5.8,1.8,7.5,0.7c-0.8-1.1,0.5,0-0.9-0.8l-5-1.4l1.3-18.5c-2.3-0.9-7-3.7-8.8-4.1c-6.9-1.7-4.5,1.4-8.6-4.4
		c-5.3-7.5-8.7-8.1-0.9-14.3c1.4,1.9,0.1,5.3,1.9,7c2.9,2.1,10.8,0.4,13.9,2.2c-2.1,0.8-2.1-0.5-3.6,1c1.4,0.7,10.7,0.6,12.1,0
		c-1-1.5-4.6-0.6-7.2-0.9c1.3-1.8,2.7-1.8,4.9-0.7c-1.8-4-7.8,0.4-18.9-3c-0.8-6.1-2.4-8.1,4.3-13.5c6.6,6.7-2.8,11.6,15.9,11.7
		c-0.7-0.8,0.1-0.2-1-0.8c-1.6-0.8-8.4-1.6-9.2-2.3c-1.7-3.2-2.6-7.2-3.9-10.4c-0.8-2,0.5-0.7-4.4-3.1c-1.6-0.8-3.5-1.8-5.1-2
		c-3.2,3.7-10.3,20.7-12.7,26.3c-2.2,5-4.7,9.2-4.6,14.8l-0.2,13.8C28.2,154.9,27.6,155.7,29.7,156.4"/>
	<path class="st0" d="M138.3,116.5c-2,0.4-0.9,0.3-2.1-0.5c-2.2-0.2-2.9,0.7-4.3,1.5c-1.6-3.9-2.8-9.7-3.8-13.9
		c-0.7-3,0-2.1-7.8-2.2c-3.3,0-6.8-0.3-10,0.2c-0.4,3.6,4.5,16.3,5.3,21.2l17.3,0l-0.7-4L138.3,116.5z M120.9,111
		c1.6,1.2,1.7,0.6,0.6,2.3c-0.7-0.1-1.4,0.9-1.5-1C119.8,111.2,120.4,111.4,120.9,111z"/>
	<path class="st0" d="M71.9,123l16.3-0.1l6.4-21.3l-8.8-0.1l-8,0C75.7,106.6,73,117.1,71.9,123 M82.9,113.3c-0.8-1.8-0.2-1.6,1.3-2
		C84.7,113.4,84.4,112.8,82.9,113.3z"/>
	<path class="st0" d="M147.3,81.4c-11.5,3.3-5.8,17,5,14C161.9,92.7,158.2,78.3,147.3,81.4"/>
	<path class="st0" d="M55.5,82.8c-11.8,2.8-6,17.1,4.5,14.1C69.1,94.3,66.4,80.2,55.5,82.8"/>
	<path class="st0" d="M90.8,81c1.5,0,13.9-11.9,28.9-2c2,1.3,1,1.5,3.4,2.2c0.2-0.2,0.8-0.6,1-0.9c-1.6-4-16.2-12.3-32.1-2.4
		C89.2,79.7,89.9,80.1,90.8,81"/>
	<path class="st0" d="M95,85.1c2.1,0.4,1.2,0.2,2.6-0.8c11.9-8.2,19.2,2.2,21.1,0.6c0.3-0.7,1.2,1.1,0.1-1.3c-0.2-0.5-0.6-0.7-1.1-1
		c-5.1-3.8-12.4-4.3-18.3-1.7C97.3,81.9,94.6,82.9,95,85.1"/>
	<path class="st0" d="M114.5,89.1c-1.4-5.6-14.1-4.1-14.9-0.6c-1.1,4.3,4.2-3.6,11.2-0.3C113.5,89.4,112.1,90.3,114.5,89.1"/>
	<path class="st0" d="M108.1,95.6c1.7-2,1.9-4.9-1.7-4.1C103.9,91.9,103.4,95.3,108.1,95.6"/>
	<path class="st0" d="M130.4,12.6c-11.3,3.8-6,19.9,5.2,16.6C146.7,26.1,141.5,8.9,130.4,12.6"/>
	<path class="st0" d="M140.6,10.7c1.7-1.4,4.9-4.5,5.5-6.5c-2.4,0.6-1.5,0.3-4.1,2.9C140.5,8.7,139.4,9.2,140.6,10.7"/>
	<path class="st0" d="M145.8,21.3c1.6,0.9,6.6,1,8.3,0c-0.5-0.9,1-0.6-1.4-0.9l-5,0C146.1,20.5,145.9,20.2,145.8,21.3"/>
	<path class="st0" d="M115.4,32c1.4-0.1,4.4-2,5.7-3c1.7-1.3,0.9,0.1,1.1-2c-1.9,0.4-2.6,1.2-4,2C114.3,31.6,115.5,30.3,115.4,32"/>
	<path class="st0" d="M112,21.3c1.4,1.6,7.3,0.6,8.4,0c-0.8-1.2,0.9-0.6-1.6-0.9c-0.3,0-2,0-2.5,0C114.4,20.5,113.2,20.2,112,21.3"
		/>
	<path class="st0" d="M144,27.3c0.9,1.2,5.7,4.1,7.3,3.3c0.1-1-1.7-1.6-3.1-2.3C146.4,27.4,144.9,25.9,144,27.3"/>
	<path class="st0" d="M115.1,11c0.9,1.3,1.6,1.4,3.2,2.4c1.4,0.9,1.9,1.5,3.9,1.7c-0.4-1.3,0.7-0.7-3.1-2.9
		C116.8,10.8,116.6,10.2,115.1,11"/>
	<path class="st0" d="M143.8,38c0.4-1.1,0.8,0.4-1.7-3.3c-2.1-3.1-1.1-2.4-3-3.2c-0.2,1.4,1.6,3.8,2.9,5.7c0.1,0.2,0.2,0.5,0.6,0.8
		C144.5,39.2,143.4,38.2,143.8,38"/>
	<path class="st0" d="M133,8.6c1.3-1,0.7-2.1,0.7-4c0-2,0.5-3.5-0.7-4.6c-0.8,1.4-0.8,4.7-0.7,6.6L133,8.6z"/>
	<path class="st0" d="M144.5,15.7c2-0.7,6.2-1.7,7.2-3.7c-1.2-0.4-4.5,1.2-6,1.9C143.6,14.8,144.2,14,144.5,15.7"/>
	<path class="st0" d="M126.6,10.4c0.6-1.7-3.2-6.7-4.3-7.1C121.4,4.9,125.5,9.9,126.6,10.4"/>
	<path class="st0" d="M122.6,38.5c1.5-0.4,0.4,1,3-3c1-1.6,2.1-2.3,1-3.8C125.4,32.6,122.9,36.7,122.6,38.5"/>
	<path class="st0" d="M133,41.5c1.3-0.9,1.3-7.1,0-8.1C131.8,35.1,132.2,40.2,133,41.5"/>
	<path class="st0" d="M187,161.6c-8.1,0.1-45-0.7-47.2,0.8c1.2,1-0.1,1.2,3,1.3l11.7,0.1c-1.5,3.3-10.3,14.4-10.9,16.6
		c4.1,0.9,60.6,0.8,62.5-0.1c-0.4-1.3-0.1-0.5-1.1-1.6c-0.1-0.1-0.2-0.2-0.3-0.2c-0.1-0.1-0.2-0.2-0.3-0.2c-0.1-0.1-0.2-0.2-0.3-0.2
		l-4.2-6.1c-1-1.5-4.9-6.8-5-8.3c2.2-0.1,5.2,0.5,6.8-0.8c-0.7-1.6-0.8-1.3-3-1.3L187,161.6z M164.9,176.6c-1.8-1.8-8-10-9.2-13
		l18.5,0.1C173.5,165.7,166.2,175.5,164.9,176.6z M184.6,176.8c-2.2-2.4-3.1-4.1-4.9-6.6l-4.5-6.6l18.3-0.1
		c-0.9,2.3-5.7,9.3-7.8,11.8c-0.1,0.1-0.5,0.6-0.7,0.8L184.6,176.8z M155.1,166.4c1.6,1.6,7.9,10.1,8.9,12.4l-17.5,0.1L155.1,166.4z
		 M165.9,178.7c1.1-1.9,3.1-4.7,4.5-6.4c1.5-2,2.7-4.2,4.4-5.9c1.6,1.7,3.3,4.1,4.8,6l4.2,6.4L165.9,178.7z M185.6,178.7
		c1.6-3.8,6.4-8.4,8.1-12.4c1.8,0.9,8,10.2,8.7,12.5l-2.2,0l-11.3,0.1L185.6,178.7z"/>
	<path class="st0" d="M192.8,175.8l2.7,0.2c0.3-1.4,0.3-2.1-0.3-3.1C192.2,172.2,192.2,173.4,192.8,175.8"/>
	<path class="st0" d="M184.6,169.6c2.1-0.9,2-1.6,1.2-3.4C182,166.2,182,168.5,184.6,169.6"/>
	<path class="st0" d="M173.7,173.1c-1.8,1.4,0.2,3.4,1.7,2.7C177.6,174.7,175.7,171.5,173.7,173.1"/>
	<path class="st0" d="M163.9,166.8c-0.7,1.5-0.4,1.1-0.1,2.6c1.9,0.3,3.6-0.3,2.5-2.6C164.8,165.9,165.5,165.9,163.9,166.8"/>
	<path class="st0" d="M144.6,166.4c-2.9,4,4.2,4.3,1.8-0.1L144.6,166.4z"/>
	<path class="st0" d="M153.6,175.2c1.7,1.4,3.5,0.9,2.9-1.9C154.8,172.4,153.5,172.8,153.6,175.2"/>
	<path class="st0" d="M36.1,161.7c-5,0-29.1-0.8-31.4,0.6c0.6,0.6-0.4,0.9,1.5,1.4l7.2,0c-0.8,2-4.7,7.1-6.2,9.1
		c-5.5,7.4-2.8,5.1-5.4,6c-1.8,0.6-0.9-0.9-1.8,1.3c1.9,1.7,11.5,0.9,15,0.8c6.9-0.1,46,0.5,47.3-0.5c1-0.7,0.4-0.1,0.7-1.1
		l-0.6-2.8c-0.6-1-2-2.6-2.8-3.6c-0.9-1.3-3.8-6.6-5-7.2l-0.9-0.2c-0.1,0-0.2,0-0.3,0c-0.1,0-0.2,0-0.3,0l-0.5,0
		c-1.4,0.2-0.1-0.5-1.3,0.9L43.5,177l-6.9-9.2c-2.6-4-1.1-2.6-2.6-2.8l-2,0l-6.2,8.9c-0.5,0.7-0.4,0.6-1.1,1.4
		c-0.8,1-0.3,0.5-1.3,1.3c-2.2-1.7-8.6-11.5-9.1-13.1c13.6,0.4,28-0.2,41.5,0c4.8,0.1,10.6,0.9,11.8-1.3
		C65.1,160.6,40.9,161.7,36.1,161.7 M33.2,166.3l9.3,12.6l-18.2,0L33.2,166.3z M53.3,166.4c1.6,1.6,7.2,9.6,8.2,12.4l-17.1,0.1
		L53.3,166.4z M5.4,178.7c-0.1-1.4-0.6,0.2,1.7-3.1c1.8-2.6,4.9-7.5,6.9-9.2c1,1.5,8.5,11.7,8.6,12.3L5.4,178.7z"/>
	<path class="st0" d="M41.8,166.6c-0.3,2.4,0.9,4.2,2.6,2.6C46.3,167.4,43.6,165.7,41.8,166.6"/>
	<path class="st0" d="M53.3,172.7c-3.8,1.4-0.9,5.7,1.6,1.9C54.5,173.4,54.4,173.4,53.3,172.7"/>
	<path class="st0" d="M31.5,174.7c2.3,3.3,5,0.1,2.2-1.9C32.2,173,31.9,173.2,31.5,174.7"/>
	<path class="st0" d="M12.5,176.1l2.4-0.4l0.1-2.4C12.2,172,11.3,174.1,12.5,176.1"/>
	<path class="st0" d="M22.9,169.4c2.2,0,2.4-0.9,2.2-2.8C22.2,165.9,20.9,167.3,22.9,169.4"/>
	<path class="st0" d="M62.1,169.5c1.9-0.7,1.9-1.1,1.7-2.9C61,166,59.6,167.8,62.1,169.5"/>
	<path class="st0" d="M5.5,169.1c0.5-0.9,0.5-1.2,0.2-2.2C3,167.1,3.2,168.8,5.5,169.1"/>
</g>
</svg>
