<?xml version="1.0" encoding="utf-8"?>
<!-- Generator: Adobe Illustrator 26.2.1, SVG Export Plug-In . SVG Version: 6.00 Build 0)  -->
<svg version="1.1" id="Layer_1" xmlns="http://www.w3.org/2000/svg" xmlns:xlink="http://www.w3.org/1999/xlink" x="0px" y="0px"
	 viewBox="0 0 47.5 81.2" style="enable-background:new 0 0 47.5 81.2;" xml:space="preserve">
<style type="text/css">
	.st0{fill-rule:evenodd;clip-rule:evenodd;fill:#935a2d;}
</style>
<g>
	<path class="st0" d="M21,24.2l1.9-0.4c-1.8-1.5-4.5-1.8-7.1-2.5c-7.1-1.9-9.4,1.2-12.3,5.4c-4.5,6.7-4.7,5.4-0.2,11.1
		c2.9,3.7,1,1.8,1.2,6.4c1.1-0.7,0.6-0.1,1-2C6.3,43.2,6,43.1,6.9,44l-0.1-3.1c1.7,0.4,1.1,0.2,1.6-0.1c-3-1.7-2.1-0.4-4.1-3.5
		c-1.1-1.7-2.2-3-2.8-4.6l3.4-5.5c0.2-0.4,0.5-0.7,0.7-1c1.1-1.2-0.5,0.1,1.1-0.9c0.6,4.9,4,11.9,3.5,14.3c-0.7,3.5-1.6,0.8,0.1,4.3
		c-3.7,1.6-5.5,8.6-7.8,14.3l4.8,0c6.5,16.2,2,8.9-0.9,21.7c2.4,0.6,3.4,1.9,5.5,1c-1.1-1.3-1.7-1.5-3.8-1.8
		c0.9-3.5,3.6-7.8,4.1-10.6c0.4-2.4-2.4-7.8-3.1-10.2l7.5-0.1c1,2.2,4.4,7.1,4.6,9.1c0.2,2.9-1.5,9-1.6,12.7
		c1.8,0.9,3.8,1.5,5.6,1.1c-1.2-2-1-0.8-4.3-2.3c0.3-2.7,1.9-9.3,1.7-11.5c-0.1-1.3-3.4-7.4-4.2-8.9l4.5-0.4
		c-0.5-2.4-7-13.3-8.7-16.3c-2.1-3.9-0.5-4.5,1.4-8.3c1.4-2.7,3.3-6,3.9-9L21,24.2z"/>
	<path class="st0" d="M12.2,4.2c-9.3,2.9-4.2,16.4,4.5,13C24,14.4,20.9,1.5,12.2,4.2"/>
	<path class="st0" d="M38.2,50.4c-3.8-2.6-0.6-5.1-8.1-6.3c1.3,4.7,2.3,5.1,7.1,5.6c1.6,3.4,1.1,5.2,1.1,10
		c-3.1-1.6-1.7-5.9-8.3-5.9c2.3,9.4,10.1,0.3,8.3,13.5l-0.1,0.7c0,0-0.4,0.6-0.1,1.6c1.2,4.6-1.1,9.9,0.9,11.7
		c2.2-2.1-1.3-6.4,1.4-13.1c3.8-0.8,6.9-0.5,7.2-5.3c-7.9,0.9-4,3.6-8.3,5.6c0.1-3.6-0.7-6.6,1-9l4.7-1.4c1.5-0.9,2.2-2.7,2.7-4.3
		c-7.2,0.4-4.5,3.9-8.5,5.8l0.4-8.9c-0.1-1.5-0.7-3.4-0.3-5.6c1-5.2,2.9-0.5,0-9.5c-4.6,3.3-0.9,7.3-0.7,10.3
		C38.5,47.2,38.3,49.1,38.2,50.4"/>
	<path class="st0" d="M22.9,23.8L21,24.2l7.7,2c3.1-3,4.7-9.1,7.1-10.2c1.7-0.8,3.8-0.1,5.8-0.3c2.1-5.9,2.1-16.7,1.1-15.1l-5.3-0.4
		c-3.2,0.3,2.2-0.5-0.9,0.1c-2.2,0.4-1.6,5.3-1.8,7.5c-0.3,2.6-1.2,3.6-0.8,7c0.2,1.9-4.2,8.1-5.6,9.8C26,24.3,25.1,23.6,22.9,23.8
		 M41.5,8.1l-0.6,4.7c-1.3,0.9-3.7,0.3-6.2,0l1-7.6C36.4,2,36,2.5,37.5,1.9c0.2-0.1,1.2,0.2,1.9-1c1.3,1.6,0.9,0.9,1.4,1
		c0.5,0.2,1.2,0.2,1.7,0.2L41.5,8.1z M38.6,13.6c-0.8,1.8,0.3,0.6-1.3,1.3C37.6,13.1,36,13.7,38.6,13.6z"/>
	<path class="st0" d="M37,67.9c-0.4-0.8-0.4-0.9-1-1.9c-1.3-2.2-3.2-3.5-6.1-3C31.3,67.5,31.7,67.7,37,67.9"/>
	<path class="st0" d="M40.5,49.5c4.7,0.1,5.6-1.5,6.8-5.5C42.4,44.9,42.2,45.3,40.5,49.5"/>
	<path class="st0" d="M36.7,9.9l3.5-0.1l0.5-3.9l-0.3-1.4c-0.9-0.1-1.1-0.2-2-0.1c-2,0.2-0.7,0.1-1.4,0.4L36.7,9.9z"/>
	<path class="st0" d="M33.9,75.8c-1-1.6-1.1-1.4-3.4-1.8c0.2,1,0.3,1.8,1.2,2.4C33.1,77.4,33.1,76.8,33.9,75.8"/>
	<path class="st0" d="M38.6,13.6c-2.6,0.1-1.1-0.5-1.3,1.3C38.9,14.2,37.8,15.4,38.6,13.6"/>
</g>
</svg>
