<?xml version="1.0" encoding="utf-8"?>
<!-- Generator: Adobe Illustrator 26.2.1, SVG Export Plug-In . SVG Version: 6.00 Build 0)  -->
<svg version="1.1" id="Layer_1" xmlns="http://www.w3.org/2000/svg" xmlns:xlink="http://www.w3.org/1999/xlink" x="0px" y="0px"
	 viewBox="0 0 69.7 123.4" style="enable-background:new 0 0 69.7 123.4;" xml:space="preserve">
<style type="text/css">
	.st0{fill-rule:evenodd;clip-rule:evenodd;fill:#935a2d;}
</style>
<g>
	<path class="st0" d="M12.7,57.6c2.9-1.3-0.9,1.3-5.7-7.8c-1.2-2.3,2.9-7.7,4.6-9.5c0.1,0.1,0.2,0.2,0.2,0.4c0,0.2,0.2,0.3,0.2,0.4
		c1.1,2.2,1.6,5.7,2.5,8.7c1.7,5.6,2.1,4.1,0.3,9.4l0.9,0.5c-1.1,2.6-1-0.3-4,7.8c-1.1,3.1-2.4,6.2-3.2,9.5l5.6-0.4
		c0.7,0.9,0.7,0.8,1.4,2c1,1.6,3.4,5.6,3.3,7.2c-0.1,1.9-3.1,7.5-3.5,10.7l5.4,0.8c0.1,0,0.3-0.1,0.4-0.2L17.1,95
		c0.6-1.8,3.5-8.6,3.5-9.9c0.1-3-3.8-5.9-3.9-8.7l7.7-0.4c7.8,10.2,5.1,6.1,4.9,20.4l6,1.1c-1.1-1.7,0.3-0.4-1-1.2l-3.6-1.5
		c0-3.2,1.4-8.9,0.6-11.6c-0.6-2.2-4-5.1-4.6-7.3l4.3-0.5c-0.6-2.1-8.3-14-10.3-16.9c-2.5-3.7-2.2-3,1.1-9.4
		c1.5-2.9,2.7-7.3,4.8-9.2c0.7,1.5,1.8,3,2.7,4.7c0.5,0.9,0.7,1.6,1.2,2.5c0.7,1.3,1.1,1.8,1.9,2.7c2-1,2.2-1.7,3.9-2.6
		c-1.6,0.2-1.4,0.6-1-1L33,47.8c-2-1.9-5.3-8.9-5.7-11.6c-2.2-0.3-13.1-3.9-16.3,1.6L4.6,48.4c1,1.9,2.6,3.9,4,5.7
		c3.2,4.1,1.2,2.6,1.8,7.7c0.5-0.6,0.2-0.2,0.7-1.2C11.8,59.2,11.9,58,12.7,57.6"/>
	<path class="st0" d="M56.8,108.6c1.7,0.6,8.8,10.1,9,12.1c-7.2,0.4-13,0-19.6-0.3c-0.1,0-0.2,0-0.3,0c-6.7,0.2-13.3,0.4-20.2,0.3
		c0.5-1.4,3.6-5,4.8-6.5c1.8-2.3,3.4-4.9,5.3-6.6c1.3,2.2,8,11.9,10.2,11.9c3.6,0.1,6.9-8.9,10.1-10.8c1-2.4-0.3-3-1.9-0.8
		l-7.7,10.4c-2-1.9-4-4.2-5.8-6.6c-3.4-4.5-1.8-4.4-5.4-5.1c-0.2,0-1.1-0.2-1.3-0.3c-1,2.5-6.3,8.3-8.7,12.1
		c-2.5-2.1-4.4-4.9-6.1-7.5c-5.2-7.6-5.7-4.6-12.7,4.2c-1,1.3-1.8,2.2-2.8,3.6C1.8,121,0.6,120.6,0,122c3,2.3,28.5,0.9,34.6,0.9
		c5.1,0,32.5,0.7,35-0.5c0-1.5,0.7-0.5-2.5-4l-6.2-7.7c-1-1.5-2.1-3.2-3.4-3.9L56.8,108.6z M4.5,120.6c0.7-1.3,8.6-12,9.8-12.8
		c0.7,0.6,9.7,12.5,9.8,12.9L4.5,120.6z"/>
	<path class="st0" d="M19.8,15.8c-10.5,2.5-6.7,17.2,3.4,14.8C32.3,28.5,29.9,13.4,19.8,15.8"/>
	<path class="st0" d="M0.2,104.1c11.1,0.3,67.2,0.8,69.4-0.6c-0.4-1.1,1.3-1.7-5.2-1.6c-2.5,0-5,0.1-7.5,0.1l-41.6,0
		c-2.9,0-5.7,0-8.5,0C3.6,102.2,0.6,101,0.2,104.1"/>
	<path class="st0" d="M42.6,19l-0.5,4.5c0.2-0.1,0.4-0.4,0.5-0.2l1.6-0.9c3.1-2,2.8-3.1,5.7-3.4c10.9-0.9,15.4,3.4,15.3-9
		c0-4,0.5-8-3.2-9.3C59-0.4,41.3-0.2,39.3,1.5c-2.4,2-1.8,6.8-1.8,10.2C37.6,16.3,38.3,18.4,42.6,19 M43.6,21.2l0.1-3.4
		c-4.5,0-4.9-1.2-4.8-5.6c0-3-0.8-7.8,1.1-9.5c1.9-1.8,17.2-1.5,20.6-1C64.4,2.1,64,5.4,64,8.9c0,3.6,0.6,7.5-2.2,8.6
		c-1.6,0.6-8,0.3-10.2,0.3C45.5,17.7,48,19.2,43.6,21.2z"/>
	<path class="st0" d="M35.4,46.2c-0.4,1.6-0.6,1.2,1,1c8.2-7.3,10.1,0.7,12.4-4.3c0.9-1.9,2.8-11.4,2.6-13.5l-7.5-0.7l-3.7,14
		L35.4,46.2z M45.3,42c0.8,3.1,0.4,0.5-0.6,1.6l-1.2-2.1l-1.6,0.1c0.2-2,0.7-3.5,1.1-5.5c0.2-1,0.2-1.6,0.5-2.6l1.2-2.9l5.4,0.6
		l-2.3,10.9L45.3,42z"/>
	<path class="st0" d="M47.4,38.7l1.2-5.3L45.1,33C43.5,36.6,42.8,39,47.4,38.7"/>
	<path class="st0" d="M44.8,107.7c-2.2,2.4,1.4,3.7,2.6,2.6C49.3,108.8,47.1,105.2,44.8,107.7"/>
	<path class="st0" d="M23.7,107.4c-1.8,1.4,0.4,4,2.1,3.2C28.1,109.3,26.1,105.5,23.7,107.4"/>
	<path class="st0" d="M37,115.4c-2.6-2.2-4.2,0.1-3.4,1.7C34.6,118.9,37.4,118.4,37,115.4"/>
	<path class="st0" d="M57.9,117.6c0.9-1.6,0.9-1.3-0.1-2.8l-2.4-0.3C54.3,116.9,54.7,118.6,57.9,117.6"/>
	<path class="st0" d="M12.6,115.1c-1,2.2,0.4,3,2.7,2.7c0.5-1.3,0.5-1.9-0.1-3.1C13.3,114.3,14.4,114,12.6,115.1"/>
	<path class="st0" d="M2.9,107.3c-0.4,2.3-0.4,2.8,1.8,3.3c1.6-1,1.6-1,1.2-3.1L2.9,107.3z"/>
	<path class="st0" d="M64.6,110.1l2.6,0.4l0.5-2.7C65.6,106.8,63.8,107.3,64.6,110.1"/>
	<path class="st0" d="M43.6,8.9c0,2-0.1,1.4,1,2.5C48.5,10.8,45.7,6.9,43.6,8.9"/>
	<path class="st0" d="M56.6,10.9c1.7,0.5,1.8,0.3,2.7-0.6C59.1,7.3,55.8,7.3,56.6,10.9"/>
	<path class="st0" d="M50.5,8.6c0,0.3-1.1-0.2-0.4,1.9c0.6,1.7,3.9,1.1,2.3-1.7L50.5,8.6z"/>
	<path class="st0" d="M45.3,42l-1.8-0.5l1.2,2.1C45.7,42.6,46.2,45.1,45.3,42"/>
</g>
</svg>
