<?xml version="1.0" encoding="utf-8"?>
<!-- Generator: Adobe Illustrator 26.2.1, SVG Export Plug-In . SVG Version: 6.00 Build 0)  -->
<svg version="1.1" id="Layer_1" xmlns="http://www.w3.org/2000/svg" xmlns:xlink="http://www.w3.org/1999/xlink" x="0px" y="0px"
	 viewBox="0 0 158 74.9" style="enable-background:new 0 0 158 74.9;" xml:space="preserve">
<style type="text/css">
	.st0{fill-rule:evenodd;clip-rule:evenodd;fill:#935a2d;}
</style>
<g>
	<path class="st0" d="M27.6,62.6c0.4,0.4,0.3,0.6,1.5,1c1,0.4,0.9,0.2,1.9,0.2c6.9-0.1,5.2,2,8.6,3.7c6.1,3.1,9.4-1.7,13.4-2.4
		c6.2-1.1,8,3.4,13.2,3.6c6.6,0.3,7.1-4.3,13.4-3.9c5.6,0.3,6.9,5.1,13.8,3.3c4.5-1.2,6.7-5,12.9-3.1c4.3,1.3,6.9,5.2,13.3,1.7
		c2.1-1.2,2.4-2.8,5-3.5c3.8-1,5.1,1.4,7.2-1.3c-2.4,0.3-6.1,0-8,0.6c-2.2,0.7-3.3,2.5-5,3.4c-5.5,3.2-8.8-1.1-12.6-2.1
		c-7.1-1.9-8.9,2.4-13.3,3.4c-6,1.3-7.8-3.1-13.2-3.5c-6.4-0.4-7.4,4.2-13.4,3.9c-5.7-0.3-6.2-4.5-12.9-3.6c-4.7,0.6-7,5-12.9,2.8
		c-2.8-1.1-1.8-2.3-5.1-3.4C32.7,62.5,30.5,63,27.6,62.6"/>
	<path class="st0" d="M31.5,57.5c0.1,0.1,0.3,0.1,0.4,0.1c3.9,1.2,3,0,5.7,2.5c6.7,6,12.1-2.1,18.8-1.2c4.7,0.7,6.1,4.8,13,3.1
		c4.3-1.1,6-4.8,12.7-2.9c4,1.2,6.7,5.1,12.9,2.1c2-0.9,2.7-2,5.5-2.6c6.3-1.3,7.9,2.4,12.6,3.1c2.6,0.4,5.1-0.4,6.7-1.5
		c8.4-5.7,5.5-1.1,12.7-2.1l-1.9-0.6c-0.9-0.2-0.5-0.1-1.5-0.3c-12.3-3.4-5.8,8.5-21.3,1.2c-6.5-3.1-10.4,0.6-12.6,1.7
		c-5.4,2.7-8.7-0.3-12.3-1.7c-6.5-2.6-9.2,1.1-13.3,2.4c-6,1.9-8-1.9-12.6-2.8c-7-1.4-7.9,3-12.9,3.1C37.3,61.4,39.7,56.9,31.5,57.5
		"/>
	<path class="st0" d="M49.7,71.7c3.4-0.5,4.8-1.4,8.5,0c2.6,0.9,3.7,2.7,6.9,3.1c8.1,1,8.3-4.8,15.6-3.6c4.9,0.8,8.1,5.8,14.9,2.4
		c2.3-1.2,3.4-2.8,7-3c3.5-0.2,5.1,1.4,8.1,1.7l-1.8-1.3c-7-3.5-11.2,0.2-13.6,1.6c-7,3.8-9.4-1.7-14.9-2.4c-7.6-1-8.9,5.4-16.1,3.5
		C62.5,73.2,54.4,67.1,49.7,71.7"/>
	<path class="st0" d="M153.5,48.4l4.4,0.2c0-9.8,0.3-19.6-0.2-29.4l-4.1,0.2l0,22.1L153.5,48.4z"/>
	<polygon class="st0" points="144.5,48.5 148.9,48.6 148.9,28 144.5,28.4 	"/>
	<polygon class="st0" points="135.6,48.5 140.1,48.6 140.2,35.5 135.6,35.5 	"/>
	<polygon class="st0" points="127.2,48.6 131.6,48.6 131.4,42.8 127.3,42.8 	"/>
	<path class="st0" d="M15.7,17.4c-0.9,0.7-0.6,0.8-1.5,1.9L10,18.5c-1,4.3-2.7,9.1-3.7,13.7c-1.2,5.4-1.2,10.6-1,16.2
		C24,50.2,17.6,45.5,23,47.1c1.9,0.6,3,1.3,5,1.5c-2.4-4.1-7.7-1.1-13.2-8.3c-1.3-1.7-2.1-1.9-3.2-3.8c0.4-1.1,0.6-1.4,1.4-2.6
		c0.4-0.6,0.4-0.6,0.9-1.2c0.8-0.9,0-0.2,0.8-0.8l2.5,6l12,1.5c-1.1,1,0.3,0.2-1.2,0.7c-0.8,0.2-0.6,0.1-1.4,0.2
		c-1.5,0.2-0.8-0.3-2.2,0.3c1.3,1.2,8.5,0.5,10.9,0.6c-0.6-0.7-0.2-0.8-2.7-1.1c-0.6-0.1-1,0.1-2-0.1c0.8-2-0.7-0.4,2.3-0.9
		c0.1,0,0.3,0,0.3-0.1c0-0.1,0.2,0,0.3-0.1c-2.4-3.2-3.6-0.6-7.1-1.1c-7.2-1-7.6-0.8-8.7-2.9c-3.2-5.7-1.3-6.7,1.1-10.7
		c5.5,8.4,0.5,8.4,10.2,11c2.2,0.6,2.9,0.9,4,0.2c0.9-0.6,0.2-0.1,0.8-0.9c-8.9-1.5-8.6-1.3-10.6-5.5c-4-8.3-2.8-8.1-7-9.1L16,18.1
		c1.9-2,0.3-0.7,3.5-1.1c3.9-0.5,6.4-4.5,5.6-8.3c-1-4.7-7.3-7.7-10.9-2.7c0.2,4.1,3.3,3.9-0.9,8.1C14.1,15.2,15.1,15.6,15.7,17.4"
		/>
	<path class="st0" d="M50,41c1.1-2.5,4.6-16,4.4-18.2l-13.6,0.1c-1.4,2.7-3.7,14.4-4.4,18.1C38.8,41.6,47.3,41.4,50,41 M46.1,31.2
		c0.9,1.5,0.7,1-0.6,2c-0.3-0.3-1.1,0.6-0.4-1.4C45.3,31.1,45.7,31.4,46.1,31.2z"/>
	<path class="st0" d="M53,42.4c-4.4,0.1-28.9-0.9-31.1,0.6c0.9,1.5-0.3,0.9,1.6,1.3l25-0.1c2.3,0,6.9,0.6,8.7-0.7
		C56.6,42.3,57,42.3,53,42.4"/>
	<path class="st0" d="M0.6,41.6c0.3,7.3-0.6,14.9,1.6,16c0.7-1.1,0.5-0.1,0.7-2.2L2,32c0-1.2,0.1-3.9,0-4.8c-0.3-3.4-0.1-1.6-1.3-2
		C-0.7,28.2,0.4,37.7,0.6,41.6"/>
	<path class="st0" d="M11.8,6.9c-2.9,1.8-3.1,2.7-1.9,5.9l3.9,0.3c1.2-3.8,0.3-3.7-0.9-6.4c1.4-5.2,4.2-6.2,9.5-4.4
		C20.5-1.4,12.8-1.1,11.8,6.9 M10.9,12.4C10.1,10,9.8,9.3,12.1,8c1.9,1.4,1.6,2.8,0.7,4.8L10.9,12.4z"/>
	<path d="M67.4,44.1c-1.1-0.3-2.2-0.7-3.3-1.1l-0.7,1.7c1.2,0.5,2.3,0.8,3.5,1.2L67.4,44.1z M72.5,44.9c-1.1,0-2.3-0.2-3.4-0.4
		l-0.3,1.8c1.2,0.2,2.5,0.4,3.7,0.4L72.5,44.9z M77.7,44.6c-1.2,0.2-2.3,0.3-3.5,0.4l0.1,1.8c1.3,0,2.5-0.2,3.7-0.4L77.7,44.6z
		 M82.7,43.2c-1.1,0.4-2.2,0.8-3.3,1l0.4,1.7c1.2-0.3,2.4-0.7,3.5-1.1L82.7,43.2z M87.5,41c-1,0.6-2.1,1.1-3.1,1.5l0.7,1.7
		c1.1-0.5,2.2-1,3.3-1.6L87.5,41z M91.9,38.2c-1,0.7-1.9,1.3-2.9,1.9l0.9,1.5c1-0.6,2.1-1.3,3.1-2L91.9,38.2z M96.1,34.9
		c-0.9,0.8-1.8,1.5-2.8,2.2l1.1,1.4c1-0.7,1.9-1.5,2.8-2.3L96.1,34.9z M100.1,31.4c-0.9,0.8-1.7,1.6-2.6,2.4l1.2,1.4
		c0.9-0.8,1.8-1.6,2.7-2.4L100.1,31.4z M103.9,27.6c-0.8,0.8-1.7,1.7-2.5,2.5l1.3,1.3c0.9-0.8,1.7-1.7,2.6-2.6L103.9,27.6z
		 M107.6,23.7c-0.8,0.9-1.6,1.7-2.5,2.6l1.3,1.2c0.8-0.9,1.7-1.7,2.5-2.6L107.6,23.7z M111.6,19.9c-1,0.8-1.8,1.6-2.7,2.6l1.3,1.2
		c0.8-0.9,1.6-1.7,2.5-2.4L111.6,19.9z M116.3,16.9c-1.1,0.5-2.2,1.2-3.2,1.9l1,1.5c0.9-0.7,2-1.2,3-1.7L116.3,16.9z M121.5,15
		c-1.2,0.3-2.4,0.7-3.5,1.2l0.7,1.7c1.1-0.4,2.2-0.8,3.3-1.1L121.5,15z M126.9,13.9c-1.2,0.1-2.4,0.3-3.6,0.6l0.4,1.8
		c1.1-0.2,2.3-0.4,3.5-0.6L126.9,13.9z M132.4,13.6c-1.2,0-2.4,0.1-3.6,0.2l0.1,1.8c1.2-0.1,2.4-0.2,3.5-0.2L132.4,13.6z
		 M137.8,13.7c-1.2-0.1-2.4-0.1-3.6-0.1l0,1.8c1.2,0,2.4,0.1,3.5,0.1L137.8,13.7z M136.9,19l0.4,0.8l8.8-4.4l-7.6-6.3l-1.1,1.4
		l4.2,3.5c-0.6-0.1-1.3-0.1-1.9-0.2l-0.1,1.8c0.6,0,1.2,0.1,1.8,0.2l-4.8,2.4L136.9,19z"/>
	<path class="st0" d="M17.8,51.6c6.2-0.3,12.8,0.6,13.7-1.6c-1-0.7-0.1-0.5-1.9-0.7l-20,0.9c-1,0-3.3-0.1-4.1,0
		c-2.9,0.3-1.4,0.1-1.7,1.3C6.3,52.8,14.4,51.8,17.8,51.6"/>
</g>
</svg>
