<?xml version="1.0" encoding="utf-8"?>
<!-- Generator: Adobe Illustrator 26.2.1, SVG Export Plug-In . SVG Version: 6.00 Build 0)  -->
<svg version="1.1" id="Layer_1" xmlns="http://www.w3.org/2000/svg" xmlns:xlink="http://www.w3.org/1999/xlink" x="0px" y="0px"
	 viewBox="0 0 165.3 97.1" style="enable-background:new 0 0 165.3 97.1;" xml:space="preserve">
<style type="text/css">
	.st0{fill-rule:evenodd;clip-rule:evenodd;fill:#935a2d;}
</style>
<g>
	<path class="st0" d="M140.5,47.3l0.2,0.2c0.2,1.2,0.7,0.9,1.8,2.1c4.3,4.3,0.8,8.9-0.2,10.9l5,0c-0.8-1.7-1.7-2.4-1.9-4.1
		c-0.3-2,0.3-4.1,0.4-5.6l-1.2,0.2l-0.1-7.9c0.1-0.7,0-0.8,0.2-1.5c0.4-1.2,0.1-0.6,0.7-1.4c1.7-1.9,0.5-2.1,3.1-3.3
		c2.8-1.3,1.8-1.4,3.3-3.6c1.7-2.7,1.7-1.3,4.4-1.7c4.6-0.7,1.6-7.7-2-4.9c-2.3,1.8-0.2,2.7-1.4,4.5c-1.4,2-3.1,1-4.5,2.4
		c-1.1,1.1-0.5,1.1-1,2.4c-0.6,1.5-0.8,1.6-1.9,2.4l0.2-16.1c0,0,1.6-1.1,1.9-2.3c0.4-1.5-0.3-2.6-0.7-3.5c-1.9-0.5-4.2-0.9-4.7,1.7
		c-0.6,3,1.2,3,2.3,4.3l0,15.6c-3.6-2-1.4-6.9-5.2-5.5c-1,0.5-1-1.2-1.2,1.7c-0.2,2.7,3.3,1.7,5.1,4c2.1,2.6,1.4,7.9,1.3,11.7
		C142.5,48.6,142.8,47.8,140.5,47.3"/>
	<path class="st0" d="M145.5,40.1c-0.6,0.8-0.3,0.2-0.7,1.4c-0.2,0.7-0.2,0.8-0.2,1.5l0.1,7.9l1.2-0.2c2.1-1.2,3-2.9,5.7-4.1
		c2.2,0.8,2.6,1.6,5.3,0.7c0.3-1.9-0.1-0.9-0.1-1.6l0.1-1.4c5.8-2,1.9,1.3,6.6,0.5c4.3-2.8,0.2-6.9-2.7-4.8
		c-1.9,1.4-0.2,2.6-2.7,3.3c-2.1,0.6-1.6-1.1-5.1-0.7c-2,2.1-0.8,2.4-3.3,4.1c-0.9,0.6-1.5,0.9-2.1,1.3l-1.6,1.5
		c-0.1,0.1-0.2,0.2-0.3,0.3c-0.1,0.1-0.2,0.2-0.3,0.3L145.5,40.1z"/>
	<path class="st0" d="M137,31.5c-0.2-1.8,0.3-3.9-1-4.9c-2.4-2-6.5,1.5-3.7,4.3C133.6,32.2,135,31.4,137,31.5"/>
	<path class="st0" d="M132,43.3l-0.1-0.2c-2.4-1.2-0.4-0.5-1.6-2.5c-0.7-1.2-1.5-1.6-3.3-1.2c-3.4,0.8-1.6,7,2.4,5
		C131.2,43.5,128.9,43.7,132,43.3"/>
	<path class="st0" d="M131.9,43.1l0.1,0.2l1.6,1.3l-0.6,2.5c3.5,1,3.1,0.2,5.8-0.5l2,0.9l-0.2-0.2c-0.8-1.4-0.9-0.8-1.8-2.2
		c-0.5-0.8-0.9-1.9-1.3-2.5C134.1,42.7,135.1,43.7,131.9,43.1"/>
	<path class="st0" d="M95,0.1C88.9,0.6,84.8,4,82.5,7.5c-4.7,7.2-3.2,15.6,1.8,22.4c3.4,4.7,7.5,9.9,10.6,14.4
		c2,2.9,1.1,2.7,4.4-1.7c0.7-1,1.4-1.8,2.1-2.9c2.6-3.5,6-8,8.3-11.5c2.9-4.4,4.3-10.7,2.8-15.9c-0.4-1.4-0.8-2.4-1.4-3.6
		c-0.8-1.5-1.1-1.7-2-3c-0.5-0.7-1.8-1.8-2.5-2.4C103.5,1,99-0.3,95,0.1 M81.7,17.5c-0.3-3.9,1.5-7.9,4.1-10.8
		c2.1-2.3,5.8-4.5,10.4-4.5c6,0,11.2,3.5,13.6,8.9c5.3,12.1-7.1,26.4-19.5,20.3c-3.1-1.5-5.8-4.5-7.2-7.8
		C82.3,21.7,81.9,19.8,81.7,17.5z"/>
	<path class="st0" d="M97.3,16.7c-1.2,0.6-0.7,0.7-1.8,0c-0.9,0.3-0.4,0.8-1.3,0.1c-0.6,0.2-0.5,0.4-1.1,0.4l-0.4-0.5
		c-1.3,0.5-0.9,0.8-1.8,0.1c-0.4,0.1-0.6,0.3-0.8,0.4c-0.7,0.2-0.3-0.1-0.8-0.3l-0.9,0.4c0,0.9-0.1,6.5,0.1,7
		c1.9,0.1,3.9,0.1,5.8,0.1c0.2-0.5,0.1-4.1,0.2-4.8c0.6-0.2,1.8-0.1,2.5-0.1c1.8,0,1.6-0.7,1.6,3.6c0,0.5-0.2,1.3,0.3,1.3l4.6,0
		c1.6,0,1.1,0,1.1-3.4l0-3.7c-2.1-0.7-0.7-0.4-1.4-0.1c-0.5,0.2-0.3-0.1-0.8-0.2c-0.5-0.1-0.2,0.1-0.7,0.2l-0.8-0.4
		c-0.4,0.2-0.5,0.6-1,0.4c-0.2-0.1-0.5-0.3-0.9-0.5c-0.2,0.2-0.3,0.5-0.7,0.5C97.7,17.2,97.7,16.9,97.3,16.7"/>
	<path class="st0" d="M89.5,16.2c0.3,0.3,0.1,0.3,0.4,0.5c0.5-0.2,0.6-0.4,1.1-0.5l0.4,0.5c0.6-0.2,0.7-0.5,1.4-0.5l0.4,0.5
		c0.4-0.2,0.6-0.4,0.9-0.5c0.5,0.2,0.2,0.4,0.7,0.3c0.5-0.1,0.3-0.5,0.9-0.3c0.3,0.1,0.4,0.5,0.8,0.3c0.2,0,0.5-0.4,0.7-0.4
		c0.4,0.2,0.4,0.4,0.9,0.6l0.5-0.6c0.7,0.1,0.5,0.3,1,0.5c0.7,0.3,0.5-0.2,1-0.4l0.8,0.4c0.3-0.1,0.5-0.3,0.7-0.3
		c0.5,0,0.1,0.1,0.7,0.4c0.6-0.3,0-0.8,1-0.3l2.3,0.8c0.4,0.2,0.4,0.6,1.1,0.4c0.1-0.2,0.1,0.3,0.1-0.3c0-0.3-0.2-0.4-0.5-0.7
		l-3.9-3.9c-0.5-0.6-1-1.1-1.6-1.7c-0.5-0.5-1-1.1-1.5-1.6c-0.5-0.5-1.2-1-1.7-1.6l-1.5-1.6c-0.5-0.2-1,0.6-1.7,1.3
		c-1.1,1.1-2.1,2.1-3.2,3.1c-1.1,1.1-2,2.3-3.1,3.3c-0.6,0.6-3,2.7-3.2,3.2c-0.2,0.5,0.5,0.5,0.8,0.4c0.4-0.2,0.4-0.5,1-0.5
		C88.2,16.9,88.7,16.3,89.5,16.2 M94.3,9.5c0.1-0.3,0.3-0.4,0.4-0.7C95,8.5,95,8.4,95.4,8.3C95.4,8.8,94.9,9.7,94.3,9.5z M97.9,9.5
		c0,0-0.7-0.7-0.6-1.1c0.3,0,1.1,0.8,1.1,1.1c-0.1,0.1,0,0.1-0.2,0.1C98,9.6,98.1,9.6,97.9,9.5z M96.3,9.6c-0.2-0.3-0.2-0.7,0-1.2
		c0.3,0.1,0.3,0,0.3,0.5C96.6,9.6,96.7,9.5,96.3,9.6z M92.8,11.5c-0.5,0.1-0.6,0.4-1.1,0.3c0.1-0.4,0.9-1,1.3-1
		c0.1,0.3,0,0.7,0.6,0.6c0.5-0.1,0.3-0.4,1-0.5c0.3,0.2,0.1,0.2,0.4,0.5l0.9-0.5c0.7,0.8,0.6,0.4,1.5,0l0.8,0.5l0.4-0.5
		c0.6,0.1,0.3,0.5,1.1,0.4c0.1-0.1,0.1-0.2,0.1-0.2c0.1-0.2,0-0.1,0.2-0.3c0.4,0.3,0.8,0.6,0.9,1c-0.4,0-0.6-0.1-0.8-0.3
		c-0.6,0.2-0.1,0.3-0.7,0.3c-0.2,0-0.4-0.2-0.7-0.3c-0.9,0.5-0.4,0.5-1.2-0.1c-0.6,0.1-0.5,0.3-0.8,0.4c-0.6,0.2-0.3-0.1-0.8-0.3
		c-0.3,0.1-0.5,0.3-0.8,0.4c-0.6,0-0.1-0.1-0.7-0.4C92.8,12.1,93.6,11.9,92.8,11.5z M101.9,13.4c0.5-0.2,1.4,0.9,1.5,1.3
		c-0.6,0-0.7-0.2-1-0.5c-0.2-0.2-0.1-0.2-0.3-0.4C101.8,13.5,102,13.6,101.9,13.4z M89.3,14.7c0-0.2,0.9-1,0.9-1
		c0,0,0.2-0.1,0.2-0.1c0.7-0.1,0.1,0.5-0.2,0.7C89.9,14.5,89.8,14.8,89.3,14.7z M91.6,14.7c-0.1-0.2-0.1-0.3,0.3-0.7
		c0.3-0.3,0.3-0.5,0.7-0.4c-0.1,0.3-0.2,0.4-0.5,0.7C92,14.6,92,14.9,91.6,14.7z M93.8,14.7c0.1-0.3,0.1-0.3,0.3-0.7
		c0.2-0.4,0.1-0.4,0.5-0.4c0,0.3,0,0.4-0.2,0.7C94.2,14.8,94.3,14.8,93.8,14.7z M100.2,13.5c0.5,0,0.9,0.7,1,1.1
		C100.6,14.9,100.2,13.9,100.2,13.5z M98.5,13.6c0.4,0.1,0.2,0,0.4,0.4c0.2,0.3,0.2,0.2,0.2,0.6C98.5,14.5,98.4,14,98.5,13.6z
		 M96.3,14.8c-0.3-0.3-0.2-0.9,0-1.2c0.4,0.1,0.4,0.5,0.3,1C96.4,15,96.5,14.7,96.3,14.8z"/>
	<path class="st0" d="M99.1,44.9c-0.2,1,0.8,0.8,1.7,1c0.4,0.1,0.7,0.2,1.1,0.3c0.5,0.2,0.7,0.3,0.9,0.6c-1.2,1.9-12.2,1.7-13.4,0
		c0.5-0.8,2.7-1,3.8-1.2c0.8-0.1,1.8-1.6-2.7-0.4c-3.9,1-2.7,3,2.2,3.6c2.9,0.4,6.7,0.3,9.3-0.6C106.9,46.7,100.7,44.3,99.1,44.9"/>
	<path class="st0" d="M106.4,25.4c0-0.7-1.7-0.4-2.2-0.4l-7.7,0c-1.5,0-9.5-0.1-10.2,0.1l0,0.7c0.9,0.2,14.8,0.1,17.9,0.1
		C104.8,25.8,106.4,26.1,106.4,25.4"/>
	<path class="st0" d="M0.7,77.1L6.3,77c0.4,1.3,1,2.7,1.4,4c0.1,0.4,0.6,1.6,0.7,2c0.1,0.6-1.1,1.5-1.7,2.3l-6.2,7.2
		c-1.2,1.2,0.2,1.5,2.7,3c0.3,0.2,1.4,0.9,1.7,0.9c0.9,0.2,1.3-0.8,0.5-1.2C4.5,94.7,2.5,93.6,2,93c0.1-0.5,0-0.1,0.3-0.5
		c0.2-0.2,0.2-0.3,0.4-0.4l2.2-2.6c0.2-0.3,0.4-0.5,0.7-0.9l3.8-4.5c0.8-0.9,0.6-1.1,0.2-2.3c-0.1-0.4-1.6-4.3-1.5-4.7l0.1-0.3
		l8.9-0.2l3.5,5.1c1,1.4,0.5,1.5,0.1,3.2c-0.4,1.6-2.6,10-2.5,10.4c0.1,0.7,1.8,0.8,3.2,1.1c1.1,0.3,3,1.1,2.7-0.6
		c-0.4-0.2-3.4-1-4.1-1.2c0-0.6,2.1-8.5,2.4-9.9c0.8-3.1,0.7-2.3-1.9-6.2c-0.3-0.4-1.1-1.5-1.2-2c0.6,0,4.4,0,4.8-0.2l-11.3-21
		C12.3,55,11.1,53,11,52.5c1.1-1.3,2.3-2.1,3.5-3.5c0.4-0.5,0.8-0.7,1.2-1.2c0.4-0.4,0.7-0.9,1.1-1.2c0.9-0.8,2.8-2.8,3.5-3.6
		c0.2,0.2,0,0,0.1,0.2c0.2,0.4,0.4,4.2,0.7,4.9c0.4-0.1,0.5-0.2,0.8-0.5c0.8-0.9,0.5-0.9,0.2-3.4c-0.6-6.5,0.4-5-4.2-6.4L7.4,35.1
		c-1.3-0.3-1,0.2-0.8,1.2c0.7,2.9,1.2,5.9,1.9,8.8c0.3,1.4,0.7,3,0.9,4.4c0.6,2.8,0.8,2.4,0,4.3C8.6,56.1,0.7,76.6,0.7,77.1
		 M4.3,70.7c0.1-0.7,0.7-0.5,1.5-0.5c2.4-0.1,13-0.5,13.7-0.2c-0.1,0.5-0.1,0.5-0.6,0.5c-1.3,0.1-5.6,0-6.3,0.3
		c-0.1,0.4,1.9,3.1,2.3,3.4c0.3-0.2,0.9-1.1,1.1-1.5c0.3-0.5,0.6-1.2,1-1.5c0.9,0.6,1.6,2.9,2.4,3.2c0.2-0.3,0.3-0.7,0.5-1
		c0.4-0.7,0.3-0.7,0.7-0.9c0.6,1.2-0.8,1.6-0.7,2.3c1.4,0.2,1.8-0.3,2,0.3c-0.4,0.2-8.6,0.3-9.8,0.3c-1.2,0-9.2,0.4-9.6,0
		C2.7,74.8,3.7,75.1,5,75c-0.1-0.4-0.2-0.5-0.5-0.8c-0.5-0.5-1.5-1.6-0.9-2.1c0.6,0.3,1.5,2.4,1.7,2.6C6,74.6,6,74,6.7,73.1
		c0.3-0.5,0.8-1.5,1.2-1.8c0.8,0.6,1.6,2.7,2.5,2.9c0.4-1.1,2.2-3.1,1.8-3.5C11.4,70.3,5.3,71.2,4.3,70.7z M18.8,71.8
		c0.2-0.7,0.8-0.5,0.9,0.2l-0.4,0.2C18.9,72.1,19,72.1,18.8,71.8z M14.4,72.1c-0.1-1.1,0.8-0.8,0.8-0.3
		C15.2,72.4,14.7,72.2,14.4,72.1z M9.8,72.2c-0.3-0.6,0.3-0.9,0.6-0.6C10.7,72,10.5,72.6,9.8,72.2z M5.6,72.5
		c-0.9,0-0.7-0.7-0.4-0.8C5.7,71.5,6.3,71.9,5.6,72.5z"/>
	<path class="st0" d="M15.5,33.7c-0.4,0.4-1.2,2.1-1.3,2.9c0.3,0.2,0.6,0.3,1.2,0.3c0.6-0.8,0.7-2,1.2-2.9c2.4,0.1,3.5,0.3,5.4-0.9
		c5.2-3.4,3.7-10.5-1.2-12.3c-4.1-1.5-7.6,1-8.7,3.8c-1.3,3.3-0.2,6.7,2.8,8.6L15.5,33.7z"/>
	<path class="st0" d="M23.5,54.2L23,50.7c-0.5,0.1-1.3,0.8-1.3,1.3c0,0.6,0.2,1.6,0.3,2.3c0.3,2.5,0.6,2.2,2.6,1.2
		c1-0.5,6.4-3.4,7.1-3.3c-0.2,1.8,1.1,1.8,2.7,2.2c1,0.3,5.5,1.7,6.3,1.6c0.7-0.1,1.2-0.8,1.4-1.4c0.4-1.3,0.8-2.7,1.2-4.1l3.5-12.4
		c0.6-2.1-1-2.1-2.5-2.5c-1.4-0.3-2.8-0.7-4.2-1.1c-3.8-1-3.5,0.3-4.8,5l-2.4,8.2c-0.3,0.5-0.6,0.2-1.3,1.3
		c-0.3,0.5-0.4,1.5-0.9,1.8l-5.4,2.5c-0.3,0.2-0.6,0.3-0.9,0.4c-0.1,0.1-0.4,0.2-0.5,0.2L23.5,54.2z M34.2,49.1
		c0.2-1.1,3.3-12,3.7-12.6c0.6,0,6.8,1.5,7.2,1.7c0.1,0.7-1.8,6.7-2.1,7.9c-0.4,1.3-1.9,7-2.3,7.7c-0.6,0.1-6.5-1.6-7.2-1.9
		c-0.3-2.4,2.4-0.8,2.1-2.6C34.9,48.9,34.9,49.1,34.2,49.1z"/>
	<path class="st0" d="M18.1,51.8c-0.3-0.3-1.6-3-1.8-3.5c-0.5,0.1-0.9,0.6-1.1,1c0.3,0.9,1.2,2.4,1.7,3.4c0.2,0.5,0.5,1.4,1.4,1
		l4.1-3.6c0.5-0.4,2.3-2.1,2.7-2.3c0.5,0.2,0.6,0.4,1.4,0.5c0.6,0,1.1,0.2,1.6-0.1c1.2-0.7,0.9-1.5,0.4-2.7c0.5-0.1,2.3-0.4,2.7-0.5
		c0.4-0.2,0.6-0.6,0.2-0.9c-0.4-0.3-1,0-1.5,0c-4.6,0.8-4,1.2-8.2,4.7l-0.9,0.7C20.2,50,18.6,51.6,18.1,51.8"/>
	<path class="st0" d="M38.6,47.7c0.4-0.1,2.9-2.7,3.2-3.1c1.1-1.3,0.7-3.4-0.8-4.1c-1.8-0.9-3.6,0.6-3.7,2.1
		C37.3,43.4,38.2,47.3,38.6,47.7 M40.9,43.5c0,0.1-0.5,0.4-0.6,0.5c-1,0.4-2-0.6-1.4-1.7C39.6,40.9,41.7,42.2,40.9,43.5z"/>
	<path class="st0" d="M10.6,74.8c0.5,0.1,3.3,0.1,3.6-0.1c0.1-0.1,0.3,0.1-0.2-0.6c-0.3-0.5-1.2-1.8-1.6-2
		C12,72.3,10.8,74.2,10.6,74.8"/>
	<path class="st0" d="M15.3,74.7c0.7,0.1,1.2,0,1.8,0c0.5,0,1.3,0.1,1.7-0.1c0.1-0.2-1.3-2.1-1.8-2.3C16.6,72.6,15.5,74.2,15.3,74.7
		"/>
	<path class="st0" d="M6.2,75l3.6-0.1C9.6,74.4,9.2,74,9,73.6c-0.2-0.3-0.6-0.9-1-1.1C7.5,72.7,6.3,74.7,6.2,75"/>
	<path class="st0" d="M40.9,48.5c-0.1-0.6-0.9-1.2-1.5-1c0.1,0.8,0.6,0.2,0.9,1c-0.9,0.1-1.4,0-2.2-0.2c-0.6-0.2-1.5-0.4-1.7-1
		c0.5,0,1,0.1,1.3-0.2c-0.6-0.8-3.4,0.1-0.7,1.4C38,48.8,40.3,49.7,40.9,48.5"/>
	<path d="M43,29.4c-0.6,0.9-1.2,1.8-1.8,2.7l1.3,0.9c0.6-0.9,1.3-1.8,1.9-2.7L43,29.4z M45.7,25.3c-0.6,0.9-1.2,1.8-1.8,2.7l1.4,0.9
		c0.6-0.9,1.2-1.8,1.8-2.7L45.7,25.3z M48.6,21.2c-0.7,0.9-1.4,1.8-2,2.7l1.4,0.9c0.6-0.9,1.1-1.7,1.9-2.6L48.6,21.2z M52.3,17.7
		c-0.9,0.7-1.8,1.4-2.6,2.2l1.2,1.2c0.7-0.7,1.6-1.4,2.4-2L52.3,17.7z M56.7,15.1c-1,0.5-2,1-2.9,1.6l0.9,1.4
		c0.9-0.6,1.8-1.1,2.8-1.5L56.7,15.1z M61.4,13.3c-1.1,0.3-2.1,0.7-3.1,1.1l0.6,1.5c1-0.4,2-0.8,3-1.1L61.4,13.3z M66.2,12.1
		c-1.1,0.2-2.2,0.5-3.2,0.8l0.4,1.6c1-0.3,2.1-0.5,3.1-0.7L66.2,12.1z M71.1,11.3c-1.1,0.1-2.2,0.3-3.3,0.5l0.3,1.6
		c1.1-0.2,2.1-0.3,3.2-0.5L71.1,11.3z M71.1,16.2l0.5,0.7l7.2-5.4L71,7.1l-0.8,1.4l4.3,2.4c-0.6,0-1.2,0.1-1.8,0.2l0.2,1.6
		c0.6-0.1,1.1-0.1,1.7-0.2l-3.9,2.9L71.1,16.2z"/>
</g>
</svg>
