<?xml version="1.0" encoding="utf-8"?>
<!-- Generator: Adobe Illustrator 26.2.1, SVG Export Plug-In . SVG Version: 6.00 Build 0)  -->
<svg version="1.1" id="Layer_1" xmlns="http://www.w3.org/2000/svg" xmlns:xlink="http://www.w3.org/1999/xlink" x="0px" y="0px"
	 viewBox="0 0 170.2 107.8" style="enable-background:new 0 0 170.2 107.8;" xml:space="preserve">
<style type="text/css">
	.st0{fill-rule:evenodd;clip-rule:evenodd;fill:#935a2d;}
</style>
<g>
	<path class="st0" d="M16,10.8c-5.2-4.7-6.8,0.4-12.5,4.8c-0.8,0.6-3.1,2.7-3.5,3.3L7.3,14c2.6-1.8,4.7-4.2,8.3-1.2
		c3.2,2.7,9.8,8.5,14.8,10.4l-10.6-8.8c-0.9-0.7-2.7-2.2-3.1-3.3c1.8-1.5,4.1-2.9,5.9-4.3c1.4-1.1,4.1-3.6,6-4.1
		c1.5-0.4,2.6,0.2,3.7,0.9l8.5,6.7c1.5-0.6,2.9-1.7,4.7-0.9c2,1,8.1,6.5,12,7.5L45.7,7.5c-2.4-1.1-3.7,0.7-5.2,1.4
		c-7.6-7-9-12.2-15.8-6.3L16,10.8z"/>
	<path class="st0" d="M30.8,60c-0.6,2-1.6,2.5-2.7,4l1.8,6.6c2.5,0.2,4.8,0.7,7.2,1c3.4,0.4,3.5-1.7,6.3,1.1c-0.1,0.1-0.2,0-0.3,0.1
		L42.4,73c-1.2,0.3-0.4-0.5-1.1,0.6c1.2,0.5,0.6,0.1,1.8,0.3c2.3,0.4-1.3-0.4,0.8,0.2c0.9,0.2,0.7,0.2,1,0.4c-1.6,0.7-7.2,0.5-8.9,0
		l0.7-0.3c0.6-0.1,0.4-0.1,1.2-0.2c0.9-0.1,1.4,0.1,2.5-0.1c-1.9-1.8-8.1-1.5-11.2-2L28,68.4l-1.5-3.5c-1.2,0.8-4.8,4.6-5.9,6
		l4.4,7.7c0.4,0.5,0,1.3,0.6,1.4c2.4,0.5,8.9-1.3,7.8,2.2c-0.2,7.1-0.6,10.3-1,12.7c-0.1,0.3,4.1,1.9,4,2.1
		c-0.1,0.5-4.4-0.9-4.4-1.6c-0.2-2.9,0.6-13.1,0.5-13.2c-0.9-0.7,0.4-1.9-5-1.3c-0.5,0.1-4.4,2.1-4.7,2.4c3.4,2,2.1,0.8,2.7,2.4
		c-0.3,5.3-0.6,9.7-0.8,11c0,0.2,3.3,1.5,3.3,1.6c-0.1,0.5-3.6-0.7-3.7-1.2c-0.3-2.1-0.3-12-0.5-12.2c-1.4-0.7-2.5-1.6-4.8-1.4
		c-2.7,0.1-5,0.2-7.7,0.1c-0.1,0-0.2,12.5,0,14.1c0.2,1.3-1.3,1.8-1.2-1.6c0-0.1,0.3-12.5,0.2-12.5c1-4.5,12.1-23.8,13.9-28.5
		C27.7,56.1,29,58.1,30.8,60"/>
	<path class="st0" d="M57.8,74.6l-12.1,0c0.5-3,3-14,4.3-16c2.6,0,10.3-0.5,12.3,0.3l-4,14.7C57.7,75,58.3,73.9,57.8,74.6
		 M54.3,67.6c0.5-0.3,0.7,0.7,0.6-0.9c0-1.1,0-0.2-0.6-0.7c-0.4,0.6-0.3,0.1-0.4,1C53.7,69,53.5,66.6,54.3,67.6z"/>
	<path class="st0" d="M33.3,43.6c7.4,2.6,3.8,13.1-3.5,11c-2.2-0.6-4.9-3.8-3.7-7.3C27,44.7,29.8,42.4,33.3,43.6"/>
	<path class="st0" d="M57.7,76.2c-0.3,1.5,0,1.1-2,1.1l-20.9,0c-2.2,0-2.1,0.4-2.3-1.1C34,75.4,56.5,75.5,57.7,76.2"/>
	<path class="st0" d="M45.1,70.1c-2.5-1.1-7.8-1.7-9.2-3.8c-3.3-5-5.4-6.3-3.8-7.8c4,3.4,2.6,7.2,6.8,8.3
		C44.1,68.1,44.3,67.5,45.1,70.1"/>
	<path class="st0" d="M151.8,56.7l-1.7-0.3c1.6-1.4,3.9-1.6,6.3-2.2c6.3-1.7,8.3,1,10.8,4.8c3.9,5.9,4.2,4.8,0.2,9.8
		c-2.6,3.3-0.9,1.6-1.1,5.6c-1-0.6-0.5-0.1-0.9-1.7c-0.7,0.8-0.4,0.7-1.2,1.5l0.1-2.7c-1.5,0.4-0.9,0.2-1.4-0.1
		c2.6-1.5,1.9-0.4,3.6-3.1c1-1.5,2-2.6,2.5-4.1l-3-4.9c-0.2-0.3-0.4-0.6-0.6-0.8c-1-1,0.4,0.1-1-0.8c-0.6,4.4-3.5,10.5-3.1,12.6
		c0.6,3.1,1.4,0.7-0.1,3.8c3.2,1.4,4.9,7.6,6.8,12.6l-4.2,0c-5.7,14.3-1.8,7.8,0.8,19.1c-2.1,0.5-3,1.7-4.8,0.9
		c1-1.2,1.5-1.3,3.4-1.6c-0.8-3.1-3.2-6.9-3.6-9.3c-0.4-2.1,2.1-6.9,2.8-9l-6.6-0.1c-0.8,1.9-3.9,6.2-4,8c-0.2,2.6,1.3,7.9,1.4,11.2
		c-1.6,0.8-3.4,1.3-4.9,1c1.1-1.8,0.8-0.7,3.8-2c-0.3-2.3-1.6-8.2-1.5-10.2c0.1-1.2,3-6.5,3.7-7.8l-3.9-0.3
		c0.5-2.1,6.2-11.7,7.6-14.4c1.9-3.4,0.4-4-1.3-7.3c-1.2-2.4-2.9-5.3-3.4-7.9L151.8,56.7z"/>
	<path class="st0" d="M159.5,39.1c8.2,2.6,3.7,14.4-4,11.4C149.1,48.1,151.8,36.7,159.5,39.1"/>
	<path class="st0" d="M136.5,79.8c3.3-2.3,0.5-4.5,7.2-5.6c-1.1,4.1-2.1,4.5-6.2,4.9c-1.4,3-0.9,4.6-1,8.8c2.8-1.4,1.5-5.2,7.3-5.2
		c-2,8.3-8.9,0.2-7.3,11.9l0.1,0.6c0,0,0.4,0.5,0.1,1.4c-1,4,1,8.7-0.8,10.3c-2-1.9,1.2-5.6-1.2-11.6c-3.3-0.7-6.1-0.5-6.4-4.6
		c7,0.8,3.6,3.2,7.3,5c0-3.2,0.6-5.8-0.9-7.9l-4.1-1.3c-1.3-0.8-2-2.4-2.3-3.8c6.4,0.3,3.9,3.4,7.5,5.1l-0.3-7.8
		c0.1-1.3,0.6-3,0.3-4.9c-0.8-4.6-2.5-0.5,0-8.3c4.1,2.9,0.8,6.4,0.7,9.1C136.3,77,136.4,78.7,136.5,79.8"/>
	<path class="st0" d="M150.1,56.4l1.7,0.3l-6.8,1.7c-2.8-2.7-4.1-8-6.2-9c-1.5-0.7-3.4-0.1-5.1-0.3c-1.8-5.2-1.8-14.7-1-13.3
		l4.7-0.4c2.8,0.3-2-0.4,0.8,0.1c1.9,0.4,1.4,4.7,1.6,6.6c0.2,2.3,1.1,3.2,0.7,6.2c-0.2,1.7,3.7,7.1,4.9,8.7
		C147.3,56.8,148.1,56.3,150.1,56.4 M133.6,42.5l0.5,4.2c1.2,0.8,3.3,0.3,5.4,0l-0.9-6.7c-0.5-2.8-0.2-2.4-1.5-2.9
		c-0.1-0.1-1,0.2-1.7-0.9c-1.1,1.4-0.8,0.8-1.3,0.9c-0.4,0.1-1,0.1-1.5,0.2L133.6,42.5z M136.2,47.4c0.7,1.6-0.2,0.5,1.1,1.2
		C137.1,46.9,138.5,47.5,136.2,47.4z"/>
	<path class="st0" d="M137.6,95.3c0.4-0.7,0.3-0.8,0.9-1.7c1.2-1.9,2.8-3.1,5.4-2.6C142.6,94.9,142.2,95.1,137.6,95.3"/>
	<path class="st0" d="M134.5,79.1c-4.1,0.1-4.9-1.3-6-4.8C132.8,75,133,75.4,134.5,79.1"/>
	<path class="st0" d="M137.9,44.1l-3.1-0.1l-0.4-3.5l0.2-1.2c0.8-0.1,1-0.2,1.8-0.1c1.7,0.1,0.6,0.1,1.2,0.3L137.9,44.1z"/>
	<path class="st0" d="M140.3,102.3c0.9-1.4,1-1.3,3-1.6c-0.2,0.9-0.2,1.6-1.1,2.1C141.1,103.7,141.1,103.1,140.3,102.3"/>
	<path class="st0" d="M136.2,47.4c2.3,0.1,0.9-0.5,1.1,1.2C135.9,47.9,136.9,49,136.2,47.4"/>
	<path class="st0" d="M52.3,95.5c0.2,0.4,0.2,0.6,0.9,1c0.6,0.4,0.5,0.2,1.2,0.2c4.3-0.1,3.2,2,5.4,3.7c3.8,3.1,5.8-1.7,8.3-2.4
		c3.9-1.1,5,3.4,8.2,3.6c4.1,0.3,4.4-4.3,8.4-3.9c3.5,0.3,4.3,5.1,8.6,3.3c2.8-1.2,4.2-5,8.1-3.1c2.7,1.3,4.3,5.2,8.3,1.7
		c1.3-1.2,1.5-2.8,3.1-3.5c2.4-1,3.1,1.4,4.5-1.3c-1.5,0.3-3.8,0-5,0.6c-1.4,0.7-2.1,2.5-3.1,3.4c-3.4,3.2-5.5-1.1-7.9-2.1
		c-4.4-1.9-5.6,2.4-8.3,3.4c-3.7,1.3-4.8-3.1-8.2-3.5c-4-0.4-4.6,4.2-8.4,3.9c-3.5-0.3-3.9-4.5-8.1-3.6c-3,0.6-4.3,5-8,2.8
		c-1.7-1.1-1.1-2.3-3.2-3.4C55.5,95.4,54.1,95.9,52.3,95.5"/>
	<path class="st0" d="M54.7,90.4c0.1,0.1,0.2,0.1,0.3,0.1c2.4,1.2,1.9,0,3.6,2.5c4.2,6,7.6-2.1,11.7-1.2c2.9,0.7,3.8,4.8,8.1,3.1
		c2.7-1.1,3.8-4.8,7.9-2.9c2.5,1.2,4.2,5.1,8,2.1c1.2-0.9,1.7-2,3.4-2.6c3.9-1.3,4.9,2.4,7.9,3.1c1.6,0.4,3.1-0.4,4.2-1.5
		c5.2-5.7,3.4-1.1,7.9-2.1l-1.2-0.6c-0.6-0.2-0.3-0.1-0.9-0.3c-7.7-3.4-3.6,8.5-13.3,1.2c-4.1-3.1-6.5,0.6-7.8,1.7
		c-3.3,2.7-5.4-0.3-7.7-1.7c-4-2.6-5.7,1.1-8.3,2.4c-3.7,1.9-5-1.9-7.8-2.8c-4.4-1.4-4.9,3-8,3.1C58.4,94.3,59.9,89.8,54.7,90.4"/>
	<path class="st0" d="M66.1,104.6c2.1-0.5,3-1.4,5.3,0c1.6,0.9,2.3,2.7,4.3,3.1c5,1,5.2-4.8,9.7-3.6c3.1,0.8,5,5.8,9.3,2.4
		c1.5-1.2,2.1-2.8,4.4-3c2.2-0.2,3.2,1.4,5,1.7l-1.1-1.3c-4.3-3.5-6.9,0.2-8.4,1.6c-4.3,3.8-5.8-1.7-9.3-2.4c-4.7-1-5.5,5.4-10,3.5
		C74.1,106,69,100,66.1,104.6"/>
</g>
</svg>
