<?xml version="1.0" encoding="utf-8"?>
<!-- Generator: Adobe Illustrator 26.2.1, SVG Export Plug-In . SVG Version: 6.00 Build 0)  -->
<svg version="1.1" id="Layer_1" xmlns="http://www.w3.org/2000/svg" xmlns:xlink="http://www.w3.org/1999/xlink" x="0px" y="0px"
	 viewBox="0 0 170.6 72" style="enable-background:new 0 0 170.6 72;" xml:space="preserve">
<style type="text/css">
	.st0{fill-rule:evenodd;clip-rule:evenodd;fill:#935a2d;}
</style>
<g>
	<path class="st0" d="M146.7,27.3c0.7,2.3,1.8,2.8,3.1,4.6l-2.1,7.6c-2.9,0.3-5.5,0.8-8.3,1.1c-3.9,0.5-4.1-2-7.2,1.2
		c0.1,0.1,0.3,0,0.3,0.1l0.9,0.2c1.3,0.4,0.4-0.6,1.3,0.7c-1.3,0.5-0.7,0.1-2,0.3c-2.7,0.5,1.5-0.5-0.9,0.2c-1,0.3-0.8,0.2-1.2,0.5
		c1.9,0.8,8.3,0.6,10.2,0l-0.8-0.3c-0.7-0.2-0.5-0.1-1.4-0.2c-1.1-0.1-1.6,0.1-2.9-0.1c2.2-2,9.3-1.8,12.8-2.3L150,37l1.7-4
		c1.4,0.9,5.6,5.3,6.7,6.9l-5,8.8c-0.5,0.6,0,1.5-0.7,1.6c-2.7,0.6-10.2-1.5-8.9,2.6c0.2,8.2,0.7,11.9,1.2,14.6
		c0.1,0.4-4.7,2.2-4.6,2.4c0.1,0.6,5-1.1,5.1-1.8c0.2-3.4-0.7-15-0.6-15.1c1-0.8-0.4-2.2,5.7-1.5c0.6,0.1,5.1,2.5,5.4,2.8
		c-4,2.3-2.4,0.9-3.1,2.8c0.3,6.1,0.7,11.1,0.9,12.7c0,0.3-3.8,1.7-3.8,1.9c0.1,0.6,4.1-0.8,4.2-1.4c0.3-2.4,0.3-13.8,0.6-14
		c1.7-0.8,2.9-1.8,5.6-1.7c3.1,0.2,5.8,0.2,8.9,0.1c0.1,0,0.3,14.4,0,16.2c-0.2,1.5,1.5,2.1,1.3-1.8c0-0.1-0.3-14.4-0.2-14.4
		c-1.2-5.2-13.9-27.3-16-32.8C150.3,22.9,148.7,25.1,146.7,27.3"/>
	<path class="st0" d="M23.5,22.6c-7.7-6.9-10,0.6-18.4,7.1c-1.1,0.9-4.5,3.9-5.1,4.9l10.7-7.2c3.8-2.6,6.9-6.1,12.1-1.7
		c4.7,4,14.5,12.5,21.8,15.2L29,27.9c-1.3-1.1-4-3.2-4.6-4.8c2.6-2.3,6-4.3,8.6-6.3c2-1.6,6.1-5.4,8.9-6.1c2.2-0.6,3.9,0.3,5.4,1.4
		l12.4,9.8c2.2-0.8,4.3-2.5,6.9-1.3c3,1.4,12,9.5,17.6,11.1L67.1,17.8c-3.5-1.6-5.4,1-7.6,2c-11.1-10.2-13.2-18-23.2-9.2L23.5,22.6z
		"/>
	<path class="st0" d="M115.7,44.1l13.9,0c-0.6-3.5-3.4-16.1-4.9-18.3c-3-0.1-11.9-0.5-14.2,0.3l4.6,16.8
		C115.8,44.6,115.2,43.3,115.7,44.1 M119.7,36c-0.5-0.4-0.8,0.8-0.7-1c0.1-1.3,0-0.2,0.7-0.8c0.5,0.7,0.3,0.1,0.4,1.1
		C120.4,37.6,120.6,34.9,119.7,36z"/>
	<path class="st0" d="M143.8,8.4c-8.5,2.9-4.4,15.1,4,12.6c2.5-0.7,5.6-4.4,4.3-8.4C151.1,9.8,147.9,7,143.8,8.4"/>
	<path class="st0" d="M115.9,45.9c0.4,1.7,0,1.3,2.3,1.3l24,0c2.5,0,2.4,0.5,2.7-1.3C143,45,117.2,45.1,115.9,45.9"/>
	<path class="st0" d="M84.1,12.8c6.7-2.2,4.8-2.3,12.6-1.2c-5.6-3.3-6-2.4-12.2-1.2c-3-3.9-4.3-5.1-11.6-4.5
		C78.5,8.2,82,8,84.1,12.8"/>
	<path class="st0" d="M130.2,38.9c2.8-1.3,9-2,10.5-4.3c3.8-5.8,6.2-7.2,4.4-9c-4.6,3.9-3,8.3-7.8,9.6
		C131.4,36.7,131.2,36,130.2,38.9"/>
	<path class="st0" d="M102.1,3.2c-3.2-1.2-5.5-2.2-9,0.1c6,0.4,4.6-0.8,9.4,1.8c3.5-4.2,3.5-2.7,9-5.1
		C104.6-0.2,105.9,0.8,102.1,3.2"/>
	<path class="st0" d="M119.7,36c0.9-1.1,0.6,1.6,0.4-0.7c-0.1-1,0-0.4-0.4-1.1c-0.7,0.5-0.7-0.5-0.7,0.8
		C119,36.8,119.2,35.6,119.7,36"/>
</g>
</svg>
